<svg xmlns="http://www.w3.org/2000/svg" width="13" height="28" viewBox="0 0 13 28">
  <defs>
    <style>
      .cls-1 {
        fill: #dedede;
        fill-rule: evenodd;
      }
    </style>
  </defs>
  <path id="women.svg" class="cls-1" d="M8.806,2.39A2.4,2.4,0,1,1,6.406,0,2.4,2.4,0,0,1,8.806,2.39Zm4.157,11.324L10.87,6.747a0.859,0.859,0,0,0-.1-0.21A1.954,1.954,0,0,0,9,5.248H4.179a2.175,2.175,0,0,0-1.961,1.23v0a1.018,1.018,0,0,0-.055.143l-2.121,7.2a0.956,0.956,0,0,0,.622,1.2,0.961,0.961,0,0,0,1.176-.677L3.59,8.413,3.832,8.457,1.141,18.674H4.088v7.981A1.261,1.261,0,0,0,5.244,28,1.261,1.261,0,0,0,6.4,26.655V18.674H6.916v7.981A1.261,1.261,0,0,0,8.072,28a1.261,1.261,0,0,0,1.156-1.345V18.674h2.721L8.867,8.321H9.149l1.8,5.993A1.056,1.056,0,0,0,12.963,13.714Z"/>
</svg>
