<svg xmlns="http://www.w3.org/2000/svg" width="25" height="23" viewBox="0 0 25 23">
  <defs>
    <style>
      .st0 {
        fill: #dedede;
        fill-rule: evenodd;
      }
    </style>
  </defs>
  <path class="st0" d="M12.5,0C25.8,0,25,5.8,25,13c0,2.9-0.7,3.6-2.1,3.5c-0.6,1.5-1.5,2.9-2.6,4c-0.9,0.9-1.9,1.6-3,2.2V23
        c0,0.5-0.4,0.8-0.8,0.8h-4.3H8.5c-0.4,0-0.8-0.4-0.8-0.8v-0.1c-1.3-0.6-2.5-1.4-3.5-2.4c-1.1-1.1-2-2.5-2.6-4.1
        C0.6,16.1,0,15.1,0,13C0,5.8-0.8,0,12.5,0L12.5,0z M9.4,18.4l6.4,0.1v4h-2.2v-1h-1.9v1H9.4V18.4L9.4,18.4z M9,17h7c0.5,0,1,0.6,1,1
        v3c0.8-0.5,2.1-0.9,2.7-1.5c0.9-0.9,1.7-2.1,2.2-3.3c-0.8-0.3-1.1-0.4-2.1-0.8l0-7.2c0-0.8-1.2-1-2-1h-11c-0.8,0-2,0.2-2,1v7
        c-0.8,0.2-1.1,1.2-1.7,1.3c0.5,1.1,1.2,2.2,2.1,3.1C6,20.3,7,20.5,8,21v-3C8,17.2,9,17,9,17z M15,10c0.8,0,2,2.3,2,3s-1.2,1-2,1
        s-1-1.3-1-2S14.2,10,15,10L15,10z M10,10c0.8,0,1,1.3,1,2s-0.2,2-1,2c-0.8,0-2-0.3-2-1S9.2,10,10,10L10,10z"/>
</svg>
