<svg xmlns="http://www.w3.org/2000/svg" width="27" height="27" viewBox="0 0 27 27">
  <defs>
    <style>
      .cls-1 {
        fill: #dedede;
        fill-rule: evenodd;
      }
    </style>
  </defs>
  <path id="women.svg" class="cls-1" d="M26.1,9.626C25.951,3.776,17.364.187,12.3,0.187,6.665,0.187.879,4.878,0.285,9.626S0.207,24.191.207,24.191A1.614,1.614,0,0,0,1.768,25.7H3.845a1.666,1.666,0,0,0,1.6-1.51l0.039-.509a12.754,12.754,0,0,0,15.485.171L21.012,24.2a1.768,1.768,0,0,0,1.675,1.5h1.932a1.523,1.523,0,0,0,1.49-1.515S26.161,12.073,26.1,9.626ZM13.346,24.9a11.253,11.253,0,0,1-7.715-3.055L6.4,12.155A1.621,1.621,0,0,1,8,10.689l9.787,0.086a1.759,1.759,0,0,1,1.675,1.484l1.283,9.867A11.245,11.245,0,0,1,13.346,24.9Zm2.906-12.653a1.126,1.126,0,1,1-1.126,1.126A1.126,1.126,0,0,1,16.252,12.247Zm-6.175,0A1.126,1.126,0,1,1,8.95,13.373,1.126,1.126,0,0,1,10.077,12.247Z"/>
</svg>
