<svg xmlns="http://www.w3.org/2000/svg" width="28" height="17" viewBox="0 0 28 17">
  <defs>
    <style>
      .cls-1 {
        fill: #cecece;
        fill-rule: evenodd;
      }
    </style>
  </defs>
  <path id="car.svg" class="cls-1" d="M8.587,14.055a2.954,2.954,0,1,1-2.954-2.943A2.948,2.948,0,0,1,8.587,14.055ZM28,9.834V13a1.06,1.06,0,0,1-1.06,1.058H26.45a3.834,3.834,0,0,0-7.669,0H9.472a3.84,3.84,0,0,0-7.68,0H1.062A1.063,1.063,0,0,1,0,13V8.713H13.535V0.525A0.526,0.526,0,0,1,14,0a0.2,0.2,0,0,1,.067-0.008h4.7a1.965,1.965,0,0,1,1.565.931l2.812,5.2a3.407,3.407,0,0,0,1.49,1.323l2.374,0.942A1.68,1.68,0,0,1,28,9.834ZM21.672,7.009L19.039,2.233a1,1,0,0,0-.787-0.464H15.781a0.533,0.533,0,0,0-.532.531V6.942a0.533,0.533,0,0,0,.532.531H21.4A0.286,0.286,0,0,0,21.672,7.009ZM14-.006V0a0.2,0.2,0,0,1,.068-0.008H14Zm8.617,11.118a2.943,2.943,0,1,0,2.949,2.943A2.945,2.945,0,0,0,22.616,11.112Zm-21-9.13V7.446L6.405,4.718ZM7.162,5.151L2.328,7.906h9.65Zm-4.793-3.6L7.158,4.292,11.97,1.553h-9.6ZM7.914,4.722l4.808,2.751V1.986Z"/>
</svg>
