<svg xmlns="http://www.w3.org/2000/svg" width="24" height="20" viewBox="0 0 24 20">
  <defs>
    <style>
      .cls-1 {
        fill: #fff;
        fill-rule: evenodd;
      }
    </style>
  </defs>
  <path id="cart2.svg" class="cls-1" d="M4.24,8.221a0.213,0.213,0,0,0,.136.03H6.094a1.452,1.452,0,0,0,1.078-.7l4.053-7.244A0.363,0.363,0,0,0,11.3.028,0.211,0.211,0,0,0,11.159,0H9.44A1.449,1.449,0,0,0,8.364.693L4.31,7.937A0.366,0.366,0,0,0,4.24,8.221Zm3.89-.689,7.728-.009L15.091,6.151H8.9Zm8.692,0.024a1.452,1.452,0,0,0,1.078.7h1.719a0.211,0.211,0,0,0,.136-0.03,0.366,0.366,0,0,0-.07-0.283L15.632,0.694A1.451,1.451,0,0,0,14.554,0H12.835A0.21,0.21,0,0,0,12.7.028a0.363,0.363,0,0,0,.07.284Zm5.76-1.4H19.63l0.765,1.367,2.163,0V9.535l-21.12.023L1.412,7.539l2.178,0L4.364,6.151H1.412A1.391,1.391,0,0,0,0,7.515V9.558a1.391,1.391,0,0,0,1.412,1.365H2.074v6.949A2.169,2.169,0,0,0,4.28,20H19.716a2.168,2.168,0,0,0,2.2-2.13V10.923h0.662a1.391,1.391,0,0,0,1.413-1.365V7.515A1.391,1.391,0,0,0,22.582,6.151ZM5.5,17.579a0.719,0.719,0,0,1-1.438,0v-5.9a0.719,0.719,0,0,1,1.438,0v5.9Zm2.888,0a0.719,0.719,0,0,1-1.438,0v-5.9a0.719,0.719,0,0,1,1.438,0v5.9Zm2.889,0a0.719,0.719,0,0,1-1.438,0v-5.9a0.719,0.719,0,0,1,1.438,0v5.9Zm2.887,0a0.719,0.719,0,0,1-1.438,0v-5.9a0.719,0.719,0,0,1,1.438,0v5.9Zm2.889,0a0.719,0.719,0,0,1-1.438,0v-5.9a0.719,0.719,0,0,1,1.438,0v5.9Zm2.887,0a0.719,0.719,0,0,1-1.437,0v-5.9a0.719,0.719,0,0,1,1.437,0v5.9Z"/>
</svg>
