<svg xmlns="http://www.w3.org/2000/svg" width="13" height="9" viewBox="0 0 13 9">
  <defs>
    <style>
      .cls-1 {
        fill: #005dab;
        fill-rule: evenodd;
      }
    </style>
  </defs>
  <path id="check_copy" data-name="check copy" class="cls-1" d="M12.825,1.74L5.183,8.86a0.517,0.517,0,0,1-.695,0L4.334,8.716h0L4.167,8.56,3.446,7.889S3.44,7.879,3.436,7.874l-3.305-3.1a0.436,0.436,0,0,1,0-.647l1.042-.971a0.517,0.517,0,0,1,.695,0L4.84,5.944l6.248-5.821a0.517,0.517,0,0,1,.695,0l1.042,0.971A0.436,0.436,0,0,1,12.825,1.74Z"/>
</svg>
