<svg xmlns="http://www.w3.org/2000/svg" width="65" height="53" viewBox="0 0 65 53">
  <defs>
    <style>
      .cls-1 {
        fill: #fff;
        fill-rule: evenodd;
      }
    </style>
  </defs>
  <path id="incart.svg" class="cls-1" d="M56.508,17.008a8.5,8.5,0,1,1,8.5-8.5A8.5,8.5,0,0,1,56.508,17.008ZM61.253,5.529l-0.846-.846a0.4,0.4,0,0,0-.564,0L54.772,9.754,52.36,7.324a0.4,0.4,0,0,0-.564,0L50.95,8.17a0.4,0.4,0,0,0,0,.564l2.683,2.7s0,0.009.009,0.013l0.58,0.58,0.14,0.141h0l0.125,0.125a0.4,0.4,0,0,0,.564,0l6.2-6.2A0.4,0.4,0,0,0,61.253,5.529ZM52.279,19.013c-0.562,1.75-3.03,9.485-3.03,9.485H22.282Q17.9,16.352,13.512,4.2a1.692,1.692,0,0,0-1.6-1.2H1.608a1.64,1.64,0,0,0,0,3.279h9.145l8.769,24.295L22.466,37.5a1.714,1.714,0,0,0,1.6,1.2h24.3a1.64,1.64,0,0,0,0-3.279H25.149Q24.374,33.6,23.6,31.777h26.97a1.657,1.657,0,0,0,1.6-1.2C53.762,23.653,55,19,55,19S52.9,18.982,52.279,19.013ZM35.512,45.932a6.766,6.766,0,0,0-6.621-6.117c-3.762-.2-6.482,3.169-6.668,6.6-0.2,3.722,3.2,6.414,6.668,6.6,3.582,0.191,6.214-2.858,6.619-6.109A2.5,2.5,0,0,0,35.512,45.932Zm-9.976.481c-0.233-4.283,6.477-4.26,6.71,0A3.358,3.358,0,0,1,25.536,46.414Zm18.038,6.6c3.582,0.191,6.214-2.858,6.619-6.109a1.677,1.677,0,0,0,.049-0.489,1.658,1.658,0,0,0-.047-0.481,6.765,6.765,0,0,0-6.62-6.117c-3.761-.2-6.481,3.169-6.668,6.6C36.7,50.135,40.11,52.828,43.574,53.012Zm3.354-6.6a3.358,3.358,0,0,1-6.709,0C39.986,42.131,46.7,42.154,46.928,46.414ZM45.6,7.75S31.729,7.735,20.318,7.735c0,0-1.336,3.278.8,3.278H45.881A25.04,25.04,0,0,0,45.6,7.75Z"/>
</svg>
