<svg xmlns="http://www.w3.org/2000/svg" width="15" height="14" viewBox="0 0 15 14">
  <defs>
    <style>
      .cls-1 {
        fill: #1d73cb;
        fill-rule: evenodd;
      }
    </style>
  </defs>
  <path id="Shape_47_copy_4" data-name="Shape 47 copy 4" class="cls-1" d="M8.018,13.522a40.552,40.552,0,0,1-3.552-3.2A65.226,65.226,0,0,1,.127,4.961,0.8,0.8,0,0,1,.389,3.9C2.315,2.541,4.483-.071,7,0.505a0.412,0.412,0,0,1,.168.671A27.648,27.648,0,0,1,1.839,4.819c1.27,1.812,2.654,3.521,4.073,5.208C6.7,10.967,8.1,11.874,8.691,12.976A0.438,0.438,0,0,1,8.018,13.522ZM8.947,5.706c1.884,2.717,4.283,5,6.035,7.8a0.33,0.33,0,0,1-.437.46c-2.889-2.041-5.2-5.221-7.258-8.144A0.77,0.77,0,0,1,7.541,4.8C9.874,3.4,11.8.828,14.409,0.044a0.519,0.519,0,0,1,.477.866A19.718,19.718,0,0,1,8.947,5.706Z"/>
</svg>
