<svg xmlns="http://www.w3.org/2000/svg" width="12" height="16" viewBox="0 0 12 16">
  <defs>
    <style>
      .cls-1 {
        fill: #00529f;
        fill-rule: evenodd;
      }
    </style>
  </defs>
  <path id="lock.svg" class="cls-1" d="M9.064,5H2.953S2.88,0.9,5.923.9C5.923,0.9,9.064.255,9.064,5ZM2.005,5H1A0.9,0.9,0,0,0,0,6v9a0.9,0.9,0,0,0,1,1H11a0.9,0.9,0,0,0,1-1V6a0.9,0.9,0,0,0-1-1H9.968S9.746-.007,5.884-0.007C5.884-.007,2.005-0.119,2.005,5ZM11,13v1a1,1,0,0,1-1,1H2a1,1,0,0,1-1-1V13H11Z"/>
</svg>
