<svg xmlns="http://www.w3.org/2000/svg" width="41" height="33" viewBox="0 0 41 33">
  <defs>
    <style>
      .cls-1 {
        fill: #0064b5;
        fill-rule: evenodd;
      }
    </style>
  </defs>
  <path id="payment-box.svg" class="cls-1" d="M33.955,7.5a1.656,1.656,0,0,1,.508,1.211L34.619,30.9a1.865,1.865,0,0,1-.469,1.25,1.691,1.691,0,0,1-1.25.469H7.51a2.075,2.075,0,0,1-1.25-.469,2.075,2.075,0,0,1-.469-1.25L6.025,8.711A1.734,1.734,0,0,1,7.744,6.992h25A1.656,1.656,0,0,1,33.955,7.5ZM31.1,29.1L30.947,10.43H9.463L9.228,29.1H31.1Zm-5.82-15.117a1.75,1.75,0,0,0-1.289-.508H16.416A1.734,1.734,0,0,0,14.7,15.2a1.743,1.743,0,0,0,.508,1.289,1.65,1.65,0,0,0,1.211.508h7.656a1.651,1.651,0,0,0,1.211-.508,1.747,1.747,0,0,0,.508-1.289A1.656,1.656,0,0,0,25.283,13.985ZM40.166,6.211L39.307,1.836A1.626,1.626,0,0,0,38.76.86,1.572,1.572,0,0,0,37.666.43H2.822A1.607,1.607,0,0,0,1.1,1.836L0.244,6.211A1.637,1.637,0,0,0,.518,7.539a1.529,1.529,0,0,0,1.133.7,1.71,1.71,0,0,0,1.328-.234,1.478,1.478,0,0,0,.7-1.172L4.228,3.946H36.26l0.547,2.891a1.546,1.546,0,0,0,1.719,1.406h0.313a1.54,1.54,0,0,0,1.328-2.031h0Z"/>
</svg>
