<svg xmlns="http://www.w3.org/2000/svg" width="21.25" height="21.031" viewBox="0 0 21.25 21.031">
  <defs>
    <style>
      .cls-1 {
        fill: #0064b5;
        fill-rule: evenodd;
      }
    </style>
  </defs>
  <path id="rocket.svg" class="cls-1" d="M17.995,10.818a15.7,15.7,0,0,1-2.774,2.526,5.271,5.271,0,0,1-.455,4.39,8.05,8.05,0,0,1-3.643,3.23,0.673,0.673,0,0,1-.373.083,0.9,0.9,0,0,1-.662-0.248,0.972,0.972,0,0,1-.166-1.077,3.9,3.9,0,0,0,.476-2.236,2.81,2.81,0,0,0-.849-1.863V15.58L5.491,11.522a2.951,2.951,0,0,0-1.884-.849,4.038,4.038,0,0,0-2.256.476,0.781,0.781,0,0,1-1.035-.124A0.835,0.835,0,0,1,.109,9.948a7.261,7.261,0,0,1,3.229-3.6,5.282,5.282,0,0,1,4.347-.5A13.488,13.488,0,0,1,20.313-.074a0.868,0.868,0,0,1,.828.87,12.618,12.618,0,0,1-3.147,10.022h0ZM5.7,9.41Q6.36,8,6.651,7.5A3.981,3.981,0,0,0,3.131,8.83,4.532,4.532,0,0,1,5.7,9.41h0Zm7.949,5.011a18.46,18.46,0,0,1-1.946.953,5.439,5.439,0,0,1,.621,2.609,4.03,4.03,0,0,0,1.325-3.561h0Zm-1.159-1.47a15.724,15.724,0,0,0,2.339-1.574,13.168,13.168,0,0,0,2.319-2.319,10.792,10.792,0,0,0,1.615-3.189,12.229,12.229,0,0,0,.6-4.12,11.2,11.2,0,0,0-7.618,2.526A14.676,14.676,0,0,0,7.23,10.611l3.229,3.272A22.214,22.214,0,0,0,12.488,12.951Zm2.9-8.717a1.472,1.472,0,0,0-1.076.456,1.263,1.263,0,0,0-.455,1.035,1.556,1.556,0,0,0,1.532,1.532A1.263,1.263,0,0,0,16.421,6.8a1.473,1.473,0,0,0,.455-1.077,1.265,1.265,0,0,0-.455-1.035,1.264,1.264,0,0,0-1.035-.456h0ZM5.057,13.489a2.633,2.633,0,0,1,1.842.725,2.34,2.34,0,0,1,.745,1.7,2.552,2.552,0,0,1-.787,1.781A4.9,4.9,0,0,1,3.3,18.769H3.256a0.919,0.919,0,0,1-.911-0.911,4.941,4.941,0,0,1,1.118-3.6A2.452,2.452,0,0,1,5.057,13.489Zm0.766,2.423a0.574,0.574,0,0,0-.207-0.373A0.919,0.919,0,0,0,5.2,15.332a0.689,0.689,0,0,0-.455.248,2.2,2.2,0,0,0-.455,1.242,2.455,2.455,0,0,0,1.283-.456,2.763,2.763,0,0,0,.248-0.456h0Z"/>
</svg>
