<svg xmlns="http://www.w3.org/2000/svg" width="22" height="20.844" viewBox="0 0 22 20.844">
  <defs>
    <style>
      .cls-1 {
        fill: #0064b5;
        fill-rule: evenodd;
      }
    </style>
  </defs>
  <path id="user-stroke.svg" class="cls-1" d="M5.055,6.5A6.207,6.207,0,0,1,6.945,1.945,6.208,6.208,0,0,1,11.5.054a6.21,6.21,0,0,1,4.555,1.891,6.26,6.26,0,0,1,1.891,4.6A6.208,6.208,0,0,1,16.055,11.1,6.208,6.208,0,0,1,11.5,12.988a6.171,6.171,0,0,1-4.555-1.912A6.276,6.276,0,0,1,5.055,6.5Zm1.934,0A4.388,4.388,0,0,0,8.32,9.722a4.461,4.461,0,0,0,6.359,0A4.39,4.39,0,0,0,16.012,6.5,4.392,4.392,0,0,0,14.68,3.277a4.461,4.461,0,0,0-6.359,0A4.39,4.39,0,0,0,6.988,6.5Zm9.389,8.1q1.009,0.409,2.557,1.2a8.669,8.669,0,0,1,2.557,1.7,3.763,3.763,0,0,1,1.01,2.446,0.954,0.954,0,0,1-.945.945H1.445a0.907,0.907,0,0,1-.666-0.279A0.907,0.907,0,0,1,.5,19.951a3.76,3.76,0,0,1,1.01-2.446,8.66,8.66,0,0,1,2.557-1.7q1.547-.795,2.557-1.2C11,12.832,17.5,15.054,16.377,14.6Zm3.717,4.4a14.531,14.531,0,0,0-5.715-3.094H8.621a14.527,14.527,0,0,0-5.715,3.094H20.094Z"/>
</svg>
