<svg xmlns="http://www.w3.org/2000/svg" width="8" height="11" viewBox="0 0 8 11">
  <defs>
    <style>
      .cls-1 {
        fill: #fff;
        fill-rule: evenodd;
      }
    </style>
  </defs>
  <path id="vk.svg" class="cls-1" d="M7.437,5.84a2.659,2.659,0,0,0-1.483-.875V4.906a2.213,2.213,0,0,0,1.01-.923A2.794,2.794,0,0,0,7.329,2.55a2.713,2.713,0,0,0-.265-1.226,2.024,2.024,0,0,0-.8-0.849A3.014,3.014,0,0,0,5.2.088,11.235,11.235,0,0,0,3.532,0H0V10.99H4a5.963,5.963,0,0,0,1.714-.206,3.4,3.4,0,0,0,1.238-.694,2.892,2.892,0,0,0,.758-1.027,3.438,3.438,0,0,0,.282-1.439A2.679,2.679,0,0,0,7.437,5.84Zm-2.771-2.1a0.849,0.849,0,0,1-.416.428,1.332,1.332,0,0,1-.533.155q-0.259.015-.9,0.015H2.5V2.011H2.673q0.671,0,1.01.011a1.476,1.476,0,0,1,.587.129,0.79,0.79,0,0,1,.386.406A1.354,1.354,0,0,1,4.78,3.1,1.64,1.64,0,0,1,4.666,3.739ZM5.253,8.284a1.035,1.035,0,0,1-.5.477,1.96,1.96,0,0,1-.765.2q-0.376.014-1.355,0.014H2.5V6.22H2.961q0.671,0,1.07.011a1.807,1.807,0,0,1,.627.107,1.157,1.157,0,0,1,.564.436,1.45,1.45,0,0,1,.188.8A1.568,1.568,0,0,1,5.253,8.284Z"/>
</svg>
