<?xml version="1.0" encoding="utf-8"?><svg xmlns="http://www.w3.org/2000/svg" xmlns:xlink="http://www.w3.org/1999/xlink"><symbol viewBox="0 0 15 16" id="svg-blocks" xmlns="http://www.w3.org/2000/svg"><path d="M1.665 0H5a1.724 1.724 0 0 1 1.662 1.778v3.556A1.725 1.725 0 0 1 5 7.112H1.665A1.724 1.724 0 0 1 0 5.334V1.778A1.724 1.724 0 0 1 1.665 0zm8.328 0h3.331a1.724 1.724 0 0 1 1.665 1.778v3.556a1.724 1.724 0 0 1-1.665 1.778H9.993a1.725 1.725 0 0 1-1.666-1.778V1.778A1.724 1.724 0 0 1 9.993 0zM1.665 8.889H5a1.724 1.724 0 0 1 1.665 1.777v3.556A1.724 1.724 0 0 1 5 16H1.665A1.724 1.724 0 0 1 0 14.222v-3.555a1.724 1.724 0 0 1 1.665-1.778zm8.327 0h3.331a1.724 1.724 0 0 1 1.665 1.777v3.556A1.724 1.724 0 0 1 13.324 16H9.993a1.724 1.724 0 0 1-1.665-1.778v-3.555a1.724 1.724 0 0 1 1.665-1.778z"/></symbol><symbol viewBox="0 0 23 22" id="svg-box" xmlns="http://www.w3.org/2000/svg"><path d="M1.4 0L23 5.677l-.884 3.251L.508 3.249zM0 7.366v12.922A1.729 1.729 0 0 0 1.738 22h16.407a1.729 1.729 0 0 0 1.74-1.707V9.5l-8.126-2.134H0zm12.8 4.95H7.083v-2.243H12.8v2.243z"/></symbol><symbol viewBox="0 0 23 20" id="svg-box2" xmlns="http://www.w3.org/2000/svg"><path d="M4.518 4.724A.958.958 0 0 0 5.227 5h12.546a.908.908 0 0 0 .666-.279.961.961 0 0 0 .279-.709.954.954 0 0 0-.945-.945H5.227a.961.961 0 0 0-.709.279.908.908 0 0 0-.279.666.958.958 0 0 0 .279.712zM6.193 1.69a.861.861 0 0 1-.236-.6.9.9 0 0 1 .236-.6.755.755 0 0 1 .58-.255h9.453a.757.757 0 0 1 .58.258.9.9 0 0 1 .236.6.864.864 0 0 1-.236.6.757.757 0 0 1-.58.258H6.773a.755.755 0 0 1-.58-.261zm16.4 3.441a.91.91 0 0 0-.666-.279.961.961 0 0 0-.709.279.908.908 0 0 0-.279.666v1.245H2.028V5.8a.911.911 0 0 0-.279-.666.963.963 0 0 0-.709-.279.91.91 0 0 0-.666.279.908.908 0 0 0-.28.666v2.19a.389.389 0 0 1 .043.172l3.414 11.083a.814.814 0 0 0 .9.73H18.5a.876.876 0 0 0 .9-.688l3.42-11.129a.566.566 0 0 1 .021-.129.6.6 0 0 0 .028-.129V5.8a.911.911 0 0 0-.279-.669zM17.73 18.042H5.184l-2.9-9.066h18.351zM8 13.65a.945.945 0 0 1 .666-1.611h5.672a.945.945 0 0 1 0 1.891H8.664A.907.907 0 0 1 8 13.65z"/></symbol><symbol viewBox="0 0 28 17" id="svg-car" xmlns="http://www.w3.org/2000/svg"><path d="M8.587 14.055a2.954 2.954 0 1 1-2.954-2.943 2.948 2.948 0 0 1 2.954 2.943zM28 9.834V13a1.06 1.06 0 0 1-1.06 1.058h-.49a3.834 3.834 0 0 0-7.669 0H9.472a3.84 3.84 0 0 0-7.68 0h-.73A1.063 1.063 0 0 1 0 13V8.713h13.535V.525A.526.526 0 0 1 14 0a.2.2 0 0 1 .067-.008h4.7a1.965 1.965 0 0 1 1.565.931l2.812 5.2a3.407 3.407 0 0 0 1.49 1.323l2.374.942A1.68 1.68 0 0 1 28 9.834zm-6.328-2.825l-2.633-4.776a1 1 0 0 0-.787-.464h-2.471a.533.533 0 0 0-.532.531v4.642a.533.533 0 0 0 .532.531H21.4a.286.286 0 0 0 .272-.464zM14-.006V0a.2.2 0 0 1 .068-.008H14zm8.617 11.118a2.943 2.943 0 1 0 2.949 2.943 2.945 2.945 0 0 0-2.95-2.943zm-21-9.13v5.464l4.788-2.728zm5.545 3.169L2.328 7.906h9.65zm-4.793-3.6l4.789 2.741 4.812-2.739h-9.6zm5.545 3.171l4.808 2.751V1.986z"/></symbol><symbol viewBox="0 0 30 26" id="svg-cart" xmlns="http://www.w3.org/2000/svg"><path d="M29.134 2.462H11.115a.852.852 0 0 0 0 1.7h16.926l-2.121 9.097H11.727L7.112.626A.889.889 0 0 0 6.271 0H.846a.853.853 0 0 0 0 1.705h4.813l4.616 12.633 1.55 3.6a.9.9 0 0 0 .841.626h12.786a.853.853 0 0 0 0-1.705H13.236l-.816-1.895h14.195a.87.87 0 0 0 .841-.626l2.519-10.8a.867.867 0 0 0-.841-1.076zM18.691 22.325a3.5 3.5 0 1 0-3.485 3.682 3.484 3.484 0 0 0 3.483-3.177 1.281 1.281 0 0 0 .002-.505zm-5.25.25c-.123-2.227 3.409-2.215 3.531 0a1.769 1.769 0 0 1-3.532 0zm9.494 3.431a3.484 3.484 0 0 0 3.484-3.177 1.275 1.275 0 0 0 0-.5 3.5 3.5 0 1 0-3.485 3.677zm1.765-3.431a1.768 1.768 0 0 1-3.531 0c-.124-2.227 3.408-2.215 3.531 0z"/></symbol><symbol viewBox="0 0 24 20" id="svg-cart2" xmlns="http://www.w3.org/2000/svg"><path d="M4.24 8.221a.213.213 0 0 0 .136.03h1.718a1.452 1.452 0 0 0 1.078-.7L11.225.307A.363.363 0 0 0 11.3.028.211.211 0 0 0 11.159 0H9.44a1.449 1.449 0 0 0-1.076.693L4.31 7.937a.366.366 0 0 0-.07.284zm3.89-.689l7.728-.009-.767-1.372H8.9zm8.692.024a1.452 1.452 0 0 0 1.078.7h1.719a.211.211 0 0 0 .136-.03.366.366 0 0 0-.07-.283L15.632.694A1.451 1.451 0 0 0 14.554 0h-1.719a.21.21 0 0 0-.135.028.363.363 0 0 0 .07.284zm5.76-1.4H19.63l.765 1.367h2.163v2.012l-21.12.023-.026-2.019H3.59l.774-1.388H1.412A1.391 1.391 0 0 0 0 7.515v2.043a1.391 1.391 0 0 0 1.412 1.365h.662v6.949A2.169 2.169 0 0 0 4.28 20h15.436a2.168 2.168 0 0 0 2.2-2.13v-6.947h.662a1.391 1.391 0 0 0 1.413-1.365V7.515a1.391 1.391 0 0 0-1.409-1.364zM5.5 17.579a.719.719 0 0 1-1.438 0v-5.9a.719.719 0 0 1 1.438 0v5.9zm2.888 0a.719.719 0 0 1-1.438 0v-5.9a.719.719 0 0 1 1.438 0v5.9zm2.889 0a.719.719 0 0 1-1.438 0v-5.9a.719.719 0 0 1 1.438 0v5.9zm2.887 0a.719.719 0 0 1-1.438 0v-5.9a.719.719 0 0 1 1.438 0v5.9zm2.889 0a.719.719 0 0 1-1.438 0v-5.9a.719.719 0 0 1 1.438 0v5.9zm2.887 0a.719.719 0 0 1-1.437 0v-5.9a.719.719 0 0 1 1.437 0v5.9z"/></symbol><symbol viewBox="0 0 13 9" id="svg-check" xmlns="http://www.w3.org/2000/svg"><path data-name="check copy" d="M12.825 1.74L5.183 8.86a.517.517 0 0 1-.695 0l-.154-.144-.167-.156-.721-.671-.01-.015-3.305-3.1a.436.436 0 0 1 0-.647l1.042-.971a.517.517 0 0 1 .695 0L4.84 5.944 11.088.123a.517.517 0 0 1 .695 0l1.042.971a.436.436 0 0 1 0 .646z"/></symbol><symbol viewBox="0 0 10 10" id="svg-close" xmlns="http://www.w3.org/2000/svg"><path d="M6.791 4.992L9.848 8.05a.509.509 0 0 1 0 .719L8.769 9.848a.509.509 0 0 1-.719 0L4.992 6.79 1.934 9.848a.509.509 0 0 1-.719 0L.135 8.769a.509.509 0 0 1 0-.719l3.058-3.058L.135 1.934a.509.509 0 0 1 0-.72L1.215.135a.509.509 0 0 1 .719 0l3.058 3.058L8.05.135a.509.509 0 0 1 .72 0l1.078 1.079a.509.509 0 0 1 0 .72z"/></symbol><symbol viewBox="0 0 13 14" id="svg-cmp" xmlns="http://www.w3.org/2000/svg"><path d="M0 7h3v7H0V7zm5-7h3v14H5V0zm5 3h3v11h-3V3z"/></symbol><symbol viewBox="0 0 13 17" id="svg-crumb" xmlns="http://www.w3.org/2000/svg"><path d="M.909 16.537A.458.458 0 0 1 .455 17 .458.458 0 0 1 0 16.537V.462A.458.458 0 0 1 .455 0a.458.458 0 0 1 .454.462v16.075zM1 1h2v2H1V1zm2 2h2v2H3V3zM1 5h2v2H1V5zm2 2h2v2H3V7zm2-6h2v2H5V1zm2 2h2v2H7V3zM5 5h2v2H5V5zm2 2h2v2H7V7zm2-6h2v2H9V1zm2 2h2v2h-2V3zM9 5h2v2H9V5zm2 2h2v2h-2V7zm2 3H0V0h13v10zM1 9h12V1H1v8z"/></symbol><symbol viewBox="0 0 16 11" id="svg-dialog" xmlns="http://www.w3.org/2000/svg"><path d="M5.888 0c3.271 0 5.069 1.878 5.069 4.234s-1.8 3.91-5.069 3.91a8.258 8.258 0 0 1-1.164-.082 4.832 4.832 0 0 1-3.762 1.81c1.7-.8 1.487-2.153 1.185-2.331A3.954 3.954 0 0 1-.035 4.233C-.035 1.877 2.617 0 5.888 0zm.987 9.05a2.726 2.726 0 0 0 2.281.889 8.141 8.141 0 0 0 1.164-.165 3.721 3.721 0 0 0 4.012 1.032C12.636 10 12.6 9.074 12.9 8.9a3.805 3.805 0 0 0 2.046-3.308 4.166 4.166 0 0 0-3.626-4.111c1.741 3.51.614 7.601-4.445 7.568z"/></symbol><symbol viewBox="0 0 30 30" id="svg-down-round" xmlns="http://www.w3.org/2000/svg"><path data-name="Shape 41 copy" d="M0 15a15 15 0 1 1 15 15A15 15 0 0 1 0 15zm16.25 6.464l5.465-8.121a1.507 1.507 0 0 0-1.251-2.349H9.536a1.507 1.507 0 0 0-1.251 2.349l5.464 8.121a1.507 1.507 0 0 0 2.501 0z"/></symbol><symbol viewBox="0 0 14 14" id="svg-error" xmlns="http://www.w3.org/2000/svg"><path d="M9.714 6.989l4.275 4.281a.713.713 0 0 1 0 1.007l-1.509 1.511a.71.71 0 0 1-1.006 0L7.2 9.507l-4.276 4.281a.711.711 0 0 1-1.006 0l-1.509-1.51a.713.713 0 0 1 0-1.007l4.275-4.282L.409 2.708a.713.713 0 0 1 0-1.007L1.918.19a.711.711 0 0 1 1.006 0L7.2 4.471 11.474.19a.71.71 0 0 1 1.006 0l1.509 1.51a.713.713 0 0 1 0 1.007z"/></symbol><symbol viewBox="0 0 6 12" id="svg-fb" xmlns="http://www.w3.org/2000/svg"><path d="M-.009 5.647H1.11v6.348H3.5V5.647H5l.41-1.911H3.5V3.05a1.4 1.4 0 0 1 .232-.941 1.157 1.157 0 0 1 .818-.261 1.926 1.926 0 0 1 1.018.416l.436-1.8a6.289 6.289 0 0 0-1.92-.46A4.03 4.03 0 0 0 2.3.362 2.209 2.209 0 0 0 1.36 1.4a3.863 3.863 0 0 0-.25 1.607v.73H-.01v1.91z"/></symbol><symbol viewBox="0 0 19 19" id="svg-floppy" xmlns="http://www.w3.org/2000/svg"><path d="M8.312 13.26a.99.99 0 1 0 .99-.99.99.99 0 0 0-.99.99zM1.583 0A1.583 1.583 0 0 0 0 1.583v15.834A1.583 1.583 0 0 0 1.583 19h15.834A1.583 1.583 0 0 0 19 17.417V3.927a1.9 1.9 0 0 0-.546-1.342l-2.011-2A1.969 1.969 0 0 0 15.042 0H1.583zM2.85 1.979h1.108v3.088a.868.868 0 0 0 .871.871h1.029a.868.868 0 0 0 .871-.871V1.979h7.442a.868.868 0 0 1 .871.871v3.8a.868.868 0 0 1-.871.871H2.85a.868.868 0 0 1-.871-.871v-3.8a.868.868 0 0 1 .871-.871zM6.729 13.26A2.573 2.573 0 1 1 9.3 15.833a2.573 2.573 0 0 1-2.571-2.573z"/></symbol><symbol viewBox="0 0 11 12" id="svg-glass" xmlns="http://www.w3.org/2000/svg"><path d="M6.132 8.326a5.12 5.12 0 0 1-1.987.635C1.805 8.961 0 6.736 0 4.281A4.131 4.131 0 0 1 4.144-.006 4.4 4.4 0 0 1 8.6 4.281a5.231 5.231 0 0 1-1.033 2.826l3.285 3.237a.538.538 0 0 1 0 .735l-.7.735a.479.479 0 0 1-.7 0zm-1.8-6.887A2.945 2.945 0 0 1 7.2 4.452a2.945 2.945 0 0 1-2.873 3.014 2.945 2.945 0 0 1-2.87-3.014 2.945 2.945 0 0 1 2.87-3.013z"/></symbol><symbol viewBox="0 0 12 10" id="svg-heart" xmlns="http://www.w3.org/2000/svg"><path d="M6 1.441A2.629 2.629 0 0 0 3.5 0 3.343 3.343 0 0 0 0 3.254C0 6.74 3.565 7.669 5.5 9.761a.437.437 0 0 0 .06.062.663.663 0 0 0 .885 0 .4.4 0 0 0 .055-.062C8.438 7.665 12 6.754 12 3.254A3.344 3.344 0 0 0 8.5 0 2.629 2.629 0 0 0 6 1.441z"/></symbol><symbol viewBox="0 0 65 53" id="svg-incart" xmlns="http://www.w3.org/2000/svg"><path d="M56.508 17.008a8.5 8.5 0 1 1 8.5-8.5 8.5 8.5 0 0 1-8.5 8.5zm4.745-11.479l-.846-.846a.4.4 0 0 0-.564 0l-5.071 5.071-2.412-2.43a.4.4 0 0 0-.564 0l-.846.846a.4.4 0 0 0 0 .564l2.683 2.7s0 .009.009.013l.58.58.14.141.125.125a.4.4 0 0 0 .564 0l6.2-6.2a.4.4 0 0 0 .002-.564zm-8.974 13.484c-.562 1.75-3.03 9.485-3.03 9.485H22.282Q17.9 16.352 13.512 4.2a1.692 1.692 0 0 0-1.6-1.2H1.608a1.64 1.64 0 0 0 0 3.279h9.145l8.769 24.295 2.944 6.926a1.714 1.714 0 0 0 1.6 1.2h24.3a1.64 1.64 0 0 0 0-3.279H25.149L23.6 31.777h26.97a1.657 1.657 0 0 0 1.6-1.2C53.762 23.653 55 19 55 19s-2.1-.018-2.721.013zM35.512 45.932a6.766 6.766 0 0 0-6.621-6.117c-3.762-.2-6.482 3.169-6.668 6.6-.2 3.722 3.2 6.414 6.668 6.6 3.582.191 6.214-2.858 6.619-6.109a2.5 2.5 0 0 0 .002-.974zm-9.976.481c-.233-4.283 6.477-4.26 6.71 0a3.358 3.358 0 0 1-6.71.001zm18.038 6.6c3.582.191 6.214-2.858 6.619-6.109a1.677 1.677 0 0 0 .049-.489 1.658 1.658 0 0 0-.047-.481 6.765 6.765 0 0 0-6.62-6.117c-3.761-.2-6.481 3.169-6.668 6.6-.207 3.718 3.203 6.411 6.667 6.595zm3.354-6.6a3.358 3.358 0 0 1-6.709 0c-.233-4.282 6.481-4.259 6.709.001zM45.6 7.75s-13.871-.015-25.282-.015c0 0-1.336 3.278.8 3.278h24.763A25.04 25.04 0 0 0 45.6 7.75z"/></symbol><symbol viewBox="0 0 14 24" id="svg-left" xmlns="http://www.w3.org/2000/svg"><path d="M13.362 3.373a2.058 2.058 0 1 0-2.922-2.9L.554 10.418a2.056 2.056 0 0 0 0 2.9l9.885 9.945a2.058 2.058 0 1 0 2.922-2.9l-8.444-8.5z"/></symbol><symbol viewBox="0 0 15 14" id="svg-left-quote" xmlns="http://www.w3.org/2000/svg"><path data-name="Shape 47 copy 4" d="M8.018 13.522a40.552 40.552 0 0 1-3.552-3.2A65.226 65.226 0 0 1 .127 4.961.8.8 0 0 1 .389 3.9C2.315 2.541 4.483-.071 7 .505a.412.412 0 0 1 .168.671 27.648 27.648 0 0 1-5.329 3.643c1.27 1.812 2.654 3.521 4.073 5.208.788.94 2.188 1.847 2.779 2.949a.438.438 0 0 1-.673.546zm.929-7.816c1.884 2.717 4.283 5 6.035 7.8a.33.33 0 0 1-.437.46c-2.889-2.041-5.2-5.221-7.258-8.144A.77.77 0 0 1 7.541 4.8C9.874 3.4 11.8.828 14.409.044a.519.519 0 0 1 .477.866 19.718 19.718 0 0 1-5.939 4.796z"/></symbol><symbol viewBox="0 0 30 30" id="svg-left-round" xmlns="http://www.w3.org/2000/svg"><path d="M15 30A15 15 0 1 0 0 15a15 15 0 0 0 15 15zM8.536 13.75l8.121-5.465a1.507 1.507 0 0 1 2.349 1.251v10.928a1.507 1.507 0 0 1-2.349 1.251l-8.121-5.464a1.507 1.507 0 0 1 0-2.501z"/></symbol><symbol viewBox="0 0 24 30" id="svg-left-triangle" xmlns="http://www.w3.org/2000/svg"><path d="M23.993 3.234A3.249 3.249 0 0 0 18.93.541L1.425 12.307a3.244 3.244 0 0 0 0 5.386L18.93 29.459a3.249 3.249 0 0 0 5.063-2.693V3.234z"/></symbol><symbol viewBox="0 0 14.969 9.906" id="svg-list" xmlns="http://www.w3.org/2000/svg"><path d="M.393-.036h14.071a.5.5 0 0 1 0 1H.393a.5.5 0 0 1 0-1zm0 2.929h14.071a.5.5 0 1 1 0 1H.393a.5.5 0 0 1 0-1zm0 3.071h14.071a.5.5 0 0 1 0 1H.393a.5.5 0 0 1 0-1zm0 2.929h14.071a.5.5 0 0 1 0 1H.393a.5.5 0 0 1 0-1z"/></symbol><symbol viewBox="0 0 12 16" id="svg-lock" xmlns="http://www.w3.org/2000/svg"><path d="M9.064 5H2.953S2.88.9 5.923.9c0 0 3.141-.645 3.141 4.1zM2.005 5H1a.9.9 0 0 0-1 1v9a.9.9 0 0 0 1 1h10a.9.9 0 0 0 1-1V6a.9.9 0 0 0-1-1H9.968S9.746-.007 5.884-.007c0 0-3.879-.112-3.879 5.007zM11 13v1a1 1 0 0 1-1 1H2a1 1 0 0 1-1-1v-1h10z"/></symbol><symbol viewBox="0 0 16 16" id="svg-locked" xmlns="http://www.w3.org/2000/svg"><path d="M8.044.1A7.991 7.991 0 1 1 0 8.092 7.976 7.976 0 0 1 8.044.1zm.005 4.876a1.867 1.867 0 0 1 1.863 1.871 1.633 1.633 0 0 1-1.2 1.559 23.262 23.262 0 0 0 .534 2.637l-2.414.018a12.324 12.324 0 0 0 .615-2.632 1.643 1.643 0 0 1-1.261-1.582 1.867 1.867 0 0 1 1.863-1.871zM2.008 7.055A1.008 1.008 0 1 1 1 8.063a1.006 1.006 0 0 1 1.008-1.008zm12.047 0a1.008 1.008 0 1 1-1 1.008 1.006 1.006 0 0 1 1-1.008z"/></symbol><symbol viewBox="0 0 13 10" id="svg-mail" xmlns="http://www.w3.org/2000/svg"><path d="M0 8.857A1.114 1.114 0 0 0 1.084 10h10.833A1.114 1.114 0 0 0 13 8.857V1.143A1.114 1.114 0 0 0 11.917 0H1.084A1.114 1.114 0 0 0 0 1.143v7.714zm3.987-3.848L1.508 2.377a.578.578 0 0 1 0-.785.507.507 0 0 1 .745 0l3.955 4.177a.4.4 0 0 0 .58 0l3.959-4.177a.507.507 0 0 1 .745 0 .577.577 0 0 1 0 .785L9.011 5.009l2.481 2.614a.577.577 0 0 1 0 .786.507.507 0 0 1-.745 0L8.269 5.8s-.775.831-.915.979a1.19 1.19 0 0 1-.853.366 1.177 1.177 0 0 1-.859-.375l-.913-.97-2.476 2.609a.507.507 0 0 1-.745 0 .578.578 0 0 1 0-.786z"/></symbol><symbol viewBox="0 0 11 16" id="svg-marker" xmlns="http://www.w3.org/2000/svg"><path d="M5.552.009a5.585 5.585 0 0 1 5.437 5.67c0 3-5.5 10.153-5.5 10.153S0 8.583 0 5.679A5.682 5.682 0 0 1 5.552.009zM5.487 2.09a1.594 1.594 0 0 1 1.547 1.637 1.594 1.594 0 0 1-1.547 1.637A1.594 1.594 0 0 1 3.94 3.727 1.594 1.594 0 0 1 5.487 2.09z"/></symbol><symbol viewBox="0 0 11 28" id="svg-men" xmlns="http://www.w3.org/2000/svg"><path d="M11 7.12v8.569a1.021 1.021 0 0 1-2.041 0V9.212h-.478v17.036c0 .968-.289 1.752-.645 1.752H6.377c-.356 0-.645-.784-.645-1.752v-9.806h-.463v9.95C5.269 27.28 4.97 28 4.6 28H3.094c-.368 0-.667-.719-.667-1.608V15.754a3.755 3.755 0 0 1 .022-.4 1.214 1.214 0 0 1-.022-.224V9.212H1.9v6.478a.984.984 0 0 1-.951 1.01A.984.984 0 0 1 0 15.689V7.12a1.039 1.039 0 0 1 .374-.807A4.111 4.111 0 0 1 3.4 5.169a1.519 1.519 0 0 1 .448-.069h1.129c2.047-.085 4.354-.078 5.542 1.157A1.012 1.012 0 0 1 11 7.12zM5.43 0a2.31 2.31 0 0 0-2.278 2.34A2.309 2.309 0 0 0 5.43 4.679a2.309 2.309 0 0 0 2.278-2.34A2.31 2.31 0 0 0 5.43 0z"/></symbol><symbol viewBox="0 0 60 60" id="svg-more" xmlns="http://www.w3.org/2000/svg"><path d="M8 22c-4.411 0-8 3.589-8 8s3.589 8 8 8 8-3.589 8-8-3.589-8-8-8zm44 0c-4.411 0-8 3.589-8 8s3.589 8 8 8 8-3.589 8-8-3.589-8-8-8zm-22 0c-4.411 0-8 3.589-8 8s3.589 8 8 8 8-3.589 8-8-3.589-8-8-8z"/></symbol><symbol viewBox="0 0 41 33" id="svg-payment-box" xmlns="http://www.w3.org/2000/svg"><path d="M33.955 7.5a1.656 1.656 0 0 1 .508 1.211l.156 22.189a1.865 1.865 0 0 1-.469 1.25 1.691 1.691 0 0 1-1.25.469H7.51a2.075 2.075 0 0 1-1.25-.469 2.075 2.075 0 0 1-.469-1.25l.234-22.189a1.734 1.734 0 0 1 1.719-1.719h25a1.656 1.656 0 0 1 1.211.508zM31.1 29.1l-.153-18.67H9.463L9.228 29.1H31.1zm-5.82-15.117a1.75 1.75 0 0 0-1.289-.508h-7.575A1.734 1.734 0 0 0 14.7 15.2a1.743 1.743 0 0 0 .508 1.289 1.65 1.65 0 0 0 1.211.508h7.656a1.651 1.651 0 0 0 1.211-.508 1.747 1.747 0 0 0 .508-1.289 1.656 1.656 0 0 0-.511-1.215zm14.886-7.772l-.859-4.375A1.626 1.626 0 0 0 38.76.86a1.572 1.572 0 0 0-1.094-.43H2.822A1.607 1.607 0 0 0 1.1 1.836L.244 6.211a1.637 1.637 0 0 0 .274 1.328 1.529 1.529 0 0 0 1.133.7 1.71 1.71 0 0 0 1.328-.234 1.478 1.478 0 0 0 .7-1.172l.549-2.887H36.26l.547 2.891a1.546 1.546 0 0 0 1.719 1.406h.313a1.54 1.54 0 0 0 1.328-2.031z"/></symbol><symbol viewBox="0 0 38 39" id="svg-payment-clock" xmlns="http://www.w3.org/2000/svg"><path d="M36.666 20.149a17.293 17.293 0 0 1-4.219 11.484l.078.078 2.575 3.828a1.527 1.527 0 0 1-.547 2.344 1.273 1.273 0 0 1-.937.313 1.534 1.534 0 0 1-1.406-.781l-2.344-3.437a16.364 16.364 0 0 1-10.625 3.672 17 17 0 0 1-10.622-3.595l-2.266 3.359a1.534 1.534 0 0 1-1.406.781 1.451 1.451 0 0 1-.937-.312 1.519 1.519 0 0 1-.742-1.055 1.78 1.78 0 0 1 .273-1.289l2.5-3.828.078-.078a16.557 16.557 0 0 1-4.375-11.484 18.22 18.22 0 0 1 1.641-7.5A6.3 6.3 0 0 1 .963 7.8 7.047 7.047 0 0 1 3.7 2.492l.078-.078A6.772 6.772 0 0 1 9.088.852a6.872 6.872 0 0 1 4.141 2.734 18.962 18.962 0 0 1 6.016-1.016 16.872 16.872 0 0 1 6.015 1.094A7.057 7.057 0 0 1 29.479.93a6.967 6.967 0 0 1 5.312 1.562v.079A6.673 6.673 0 0 1 37.525 7.8a6.3 6.3 0 0 1-2.425 4.849 17.656 17.656 0 0 1 1.563 7.5zm-8.2-14.922A18.256 18.256 0 0 1 33.229 9.6a2.558 2.558 0 0 0 .781-1.875 3.425 3.425 0 0 0-1.484-2.5 2.921 2.921 0 0 0-2.426-.858 3.344 3.344 0 0 0-1.641.859zM5.26 9.6a18.236 18.236 0 0 1 4.766-4.375 3.344 3.344 0 0 0-1.641-.859 2.919 2.919 0 0 0-2.422.859 3.421 3.421 0 0 0-1.484 2.5A3.758 3.758 0 0 0 5.26 9.6zm27.969 10.471a13.6 13.6 0 0 0-4.1-9.922 13.409 13.409 0 0 0-9.883-4.141 13.347 13.347 0 0 0-9.883 4.18 13.731 13.731 0 0 0-4.1 9.961 13.6 13.6 0 0 0 4.1 9.922 13.4 13.4 0 0 0 9.883 4.141 13.344 13.344 0 0 0 9.883-4.18 13.727 13.727 0 0 0 4.1-9.961zm-12.266-.7v-8.597a1.75 1.75 0 0 0-.508-1.289 1.7 1.7 0 0 0-2.422 0 1.746 1.746 0 0 0-.508 1.289v9.375a1.992 1.992 0 0 0 .469 1.172L23.15 26.4a1.479 1.479 0 0 0 1.172.547 1.72 1.72 0 0 0 1.25-.547 1.486 1.486 0 0 0 0-2.422z"/></symbol><symbol viewBox="0 0 9 16" id="svg-phone" xmlns="http://www.w3.org/2000/svg"><path d="M1 0h6.833A1.11 1.11 0 0 1 9 1.084v13.854A1.087 1.087 0 0 1 7.875 16h-6.75A1.011 1.011 0 0 1 0 14.855V1.063A1.051 1.051 0 0 1 1 0zm7 3v10H1V3h7zM4.469 14a.531.531 0 1 1-.531.531.531.531 0 0 1 .531-.531zM4 1h3v1H4V1zM2 1h1v1H2V1z"/></symbol><symbol viewBox="0 0 18 20" id="svg-phone-big" xmlns="http://www.w3.org/2000/svg"><path d="M9.226 18.691a4.08 4.08 0 0 0 5.94 0 4.465 4.465 0 0 0 1.157-3.9 8.134 8.134 0 0 0 1.145-.745c.036-.029.2-.146.236-.179a.852.852 0 0 0 .3-.649.832.832 0 0 0-.272-.624l-3.3-2.829a.773.773 0 0 0-.5-.187.791.791 0 0 0-.557.229l-.552.586a.856.856 0 0 1-1.245 0L8.2 6.882a.945.945 0 0 1 0-1.3l.548-.57a.837.837 0 0 0 .228-.582.847.847 0 0 0-.22-.574L5.924.3a.785.785 0 0 0-1.265.037L4.611.4A6.736 6.736 0 0 0 3.19 3.932C3.19 7.486 10.811 15.4 14.2 15.4h.188a2.34 2.34 0 0 1-.632 1.831 2.142 2.142 0 0 1-3.114 0l-5.528-5.9a2.917 2.917 0 0 0-4.243 0 3.2 3.2 0 0 0 0 4.41l1.813 1.86a.98.98 0 0 0 1.417 0 1.076 1.076 0 0 0 0-1.473l-1.82-1.868a1.077 1.077 0 0 1 0-1.473.98.98 0 0 1 1.417 0z"/></symbol><symbol viewBox="0 0 24 16" id="svg-postal" xmlns="http://www.w3.org/2000/svg"><path d="M.828 0h22.345A.814.814 0 0 1 24 .8v14.4a.814.814 0 0 1-.828.8H.828A.814.814 0 0 1 0 15.2V.8A.814.814 0 0 1 .828 0zm19.836 1.6a.756.756 0 0 1 .828.775.864.864 0 0 1-.828.8.873.873 0 0 1 .853.825.759.759 0 0 1-.8.85.807.807 0 0 1-.8-.8h-.055a.758.758 0 0 1-.8.725.812.812 0 0 1-.907-.775.814.814 0 0 1 .828-.8v-.05a.688.688 0 0 1-.776-.725.726.726 0 0 1 .8-.825.825.825 0 0 1 .828.8h.077a.728.728 0 0 1 .752-.8zM12 1.6a.407.407 0 0 1 .414.4v12a.414.414 0 0 1-.828 0V2A.407.407 0 0 1 12 1.6zm2.483 5.6H21.1a.4.4 0 1 1 0 .8h-6.617a.4.4 0 1 1 0-.8zm0 2.4H21.1a.4.4 0 1 1 0 .8h-6.617a.4.4 0 1 1 0-.8zm0 2.4H21.1a.4.4 0 1 1 0 .8h-6.617a.4.4 0 1 1 0-.8z"/></symbol><symbol viewBox="0 0 15 9" id="svg-refresh" xmlns="http://www.w3.org/2000/svg"><path d="M3 3.341v3.788h4.756l1.965 1.865H.97V3.341h-1.977L2.012.065l2.956 3.276H3zm8 2.347V1.9H6.244l-2-1.894h8.786v5.682h1.978l-3.02 3.276-2.956-3.276H11z"/></symbol><symbol viewBox="0 0 13 12" id="svg-refresh2" xmlns="http://www.w3.org/2000/svg"><path d="M11.118 6.345L9.235 4.5h1.1l-.031-.08a4.471 4.471 0 0 0-4.16-2.775 4.428 4.428 0 0 0-4.467 4.383 4.428 4.428 0 0 0 4.471 4.384 4.476 4.476 0 0 0 4.079-2.587c.007-.014.011-.03.018-.045l1.2 1.168-.022.043-.007.009a6.138 6.138 0 0 1-5.3 3A6.059 6.059 0 0 1 0 6a6.059 6.059 0 0 1 6.118-6 6.1 6.1 0 0 1 5.906 4.427c.006.023.008.048.015.072H13z"/></symbol><symbol viewBox="0 0 18 22" id="svg-reply" xmlns="http://www.w3.org/2000/svg"><path d="M18.007 7.13l-7.19 7.082V9.921c-2.177 0-7.722.049-7.722 5.887a6.293 6.293 0 0 0 4.932 6.2 9.386 9.386 0 0 1-8.021-9.36c0-8.924 9.31-9 10.81-9V-.005z"/></symbol><symbol viewBox="0 0 14 24" id="svg-right" xmlns="http://www.w3.org/2000/svg"><path data-name="Shape 43 copy" d="M.609 3.5A2.058 2.058 0 1 1 3.532.6l9.885 9.945a2.056 2.056 0 0 1 0 2.9l-9.885 9.943a2.058 2.058 0 1 1-2.922-2.9l8.444-8.495z"/></symbol><symbol viewBox="0 0 15 14" id="svg-right-quote" xmlns="http://www.w3.org/2000/svg"><path data-name="Shape 47 copy" d="M6.982 13.49a40.555 40.555 0 0 0 3.552-3.2 65.215 65.215 0 0 0 4.339-5.366.8.8 0 0 0-.262-1.057C12.685 2.51 10.517-.1 8 .474a.412.412 0 0 0-.168.671 27.647 27.647 0 0 0 5.333 3.643C11.892 6.6 10.508 8.309 9.088 10c-.792.94-2.193 1.847-2.779 2.949a.438.438 0 0 0 .673.541zm-.928-7.816c-1.884 2.717-4.283 5-6.035 7.8a.33.33 0 0 0 .437.46c2.89-2.041 5.2-5.221 7.258-8.144a.77.77 0 0 0-.254-1.022C5.126 3.372 3.2.8.591.012a.519.519 0 0 0-.477.866 19.719 19.719 0 0 0 5.94 4.796z"/></symbol><symbol viewBox="0 0 30 30" id="svg-right-round" xmlns="http://www.w3.org/2000/svg"><path data-name="Shape 41 copy" d="M15 30a15 15 0 1 1 15-15 15 15 0 0 1-15 15zm6.464-16.25l-8.121-5.465a1.507 1.507 0 0 0-2.349 1.251v10.928a1.507 1.507 0 0 0 2.349 1.251l8.121-5.464a1.507 1.507 0 0 0 0-2.501z"/></symbol><symbol viewBox="0 0 24 30" id="svg-right-triangle" xmlns="http://www.w3.org/2000/svg"><path data-name="Shape 47 copy" d="M.007 3.234A3.249 3.249 0 0 1 5.07.541l17.5 11.766a3.244 3.244 0 0 1 0 5.386L5.07 29.459a3.249 3.249 0 0 1-5.063-2.693V3.234z"/></symbol><symbol viewBox="0 0 21.25 21.031" id="svg-rocket" xmlns="http://www.w3.org/2000/svg"><path d="M17.995 10.818a15.7 15.7 0 0 1-2.774 2.526 5.271 5.271 0 0 1-.455 4.39 8.05 8.05 0 0 1-3.643 3.23.673.673 0 0 1-.373.083.9.9 0 0 1-.662-.248.972.972 0 0 1-.166-1.077 3.9 3.9 0 0 0 .476-2.236 2.81 2.81 0 0 0-.849-1.863v-.043l-4.058-4.058a2.951 2.951 0 0 0-1.884-.849 4.038 4.038 0 0 0-2.256.476.781.781 0 0 1-1.035-.124.835.835 0 0 1-.207-1.077 7.261 7.261 0 0 1 3.229-3.6 5.282 5.282 0 0 1 4.347-.5A13.488 13.488 0 0 1 20.313-.074a.868.868 0 0 1 .828.87 12.618 12.618 0 0 1-3.147 10.022zM5.7 9.41Q6.36 8 6.651 7.5a3.981 3.981 0 0 0-3.52 1.33 4.532 4.532 0 0 1 2.569.58zm7.949 5.011a18.46 18.46 0 0 1-1.946.953 5.439 5.439 0 0 1 .621 2.609 4.03 4.03 0 0 0 1.325-3.561zm-1.159-1.47a15.724 15.724 0 0 0 2.339-1.574 13.168 13.168 0 0 0 2.319-2.319 10.792 10.792 0 0 0 1.615-3.189 12.229 12.229 0 0 0 .6-4.12 11.2 11.2 0 0 0-7.618 2.526 14.676 14.676 0 0 0-4.515 6.336l3.229 3.272a22.214 22.214 0 0 0 2.029-.932zm2.9-8.717a1.472 1.472 0 0 0-1.076.456 1.263 1.263 0 0 0-.455 1.035 1.556 1.556 0 0 0 1.532 1.532 1.263 1.263 0 0 0 1.03-.457 1.473 1.473 0 0 0 .455-1.077 1.265 1.265 0 0 0-.455-1.035 1.264 1.264 0 0 0-1.035-.456zM5.057 13.489a2.633 2.633 0 0 1 1.842.725 2.34 2.34 0 0 1 .745 1.7 2.552 2.552 0 0 1-.787 1.781A4.9 4.9 0 0 1 3.3 18.769h-.044a.919.919 0 0 1-.911-.911 4.941 4.941 0 0 1 1.118-3.6 2.452 2.452 0 0 1 1.594-.769zm.766 2.423a.574.574 0 0 0-.207-.373.919.919 0 0 0-.416-.207.689.689 0 0 0-.455.248 2.2 2.2 0 0 0-.455 1.242 2.455 2.455 0 0 0 1.283-.456 2.763 2.763 0 0 0 .248-.456z"/></symbol><symbol viewBox="0 0 14 10" id="svg-scale" xmlns="http://www.w3.org/2000/svg"><path data-name="Rectangle 20 copy 4" d="M14 0h-2v10h2V0zm-3 2H9v8h2V2zM8 4H6v6h2V4zM5 6H3v4h2V6zM2 8H0v2h2V8z"/></symbol><symbol viewBox="0 0 12 12" id="svg-settings" xmlns="http://www.w3.org/2000/svg"><path d="M11.038 7.233H10.4a4.535 4.535 0 0 1-.439 1.057l.587.587a.963.963 0 0 1 0 1.361l-.34.34a.963.963 0 0 1-1.361 0l-.591-.591a4.547 4.547 0 0 1-1.053.433v.616a.962.962 0 0 1-.962.964h-.482a.962.962 0 0 1-.959-.963v-.616a4.551 4.551 0 0 1-1.053-.433l-.591.591a.962.962 0 0 1-1.361 0l-.34-.34a.963.963 0 0 1 0-1.361l.584-.588A4.538 4.538 0 0 1 1.6 7.233H.962A.962.962 0 0 1 0 6.27v-.481a.963.963 0 0 1 .962-.962h.628a4.537 4.537 0 0 1 .426-1.05l-.565-.565a.962.962 0 0 1 0-1.361l.34-.34a.963.963 0 0 1 1.361 0l.554.554A4.534 4.534 0 0 1 4.8 1.609V.962A.963.963 0 0 1 5.759 0h.482A.962.962 0 0 1 7.2.962v.647a4.533 4.533 0 0 1 1.091.456l.554-.554a.963.963 0 0 1 1.361 0l.34.34a.962.962 0 0 1 0 1.361l-.565.565a4.539 4.539 0 0 1 .426 1.05h.628a.962.962 0 0 1 .965.962v.481a.962.962 0 0 1-.962.963zM6 3.4a2.647 2.647 0 1 0 2.647 2.645A2.647 2.647 0 0 0 6 3.4zm0 3.82a1.2 1.2 0 1 1 1.2-1.2A1.2 1.2 0 0 1 6 7.218z"/></symbol><symbol viewBox="0 0 13 13" id="svg-star" xmlns="http://www.w3.org/2000/svg"><path d="M6.5 0a.527.527 0 0 0-.5.4L4.718 4.522H.52A.549.549 0 0 0 0 5.09a.56.56 0 0 0 .225.452c.084.06 3.391 2.58 3.391 2.58s-1.27 4.07-1.295 4.135a.639.639 0 0 0-.032.192.538.538 0 0 0 .525.551.514.514 0 0 0 .3-.1L6.5 10.329s3.31 2.516 3.386 2.571a.513.513 0 0 0 .3.1.54.54 0 0 0 .526-.551.631.631 0 0 0-.033-.192c-.024-.065-1.295-4.135-1.295-4.135s3.307-2.521 3.391-2.58A.562.562 0 0 0 13 5.087a.544.544 0 0 0-.515-.565h-4.2L7 .4a.527.527 0 0 0-.5-.4z"/></symbol><symbol viewBox="0 0 8 11" id="svg-tw" xmlns="http://www.w3.org/2000/svg"><path d="M6.548 6.071H2.914v1.138a.746.746 0 0 0 .727.76h2.907a1.52 1.52 0 0 1 0 3.038H2.914A2.974 2.974 0 0 1 .006 7.969V1.514A1.487 1.487 0 0 1 1.46 0a1.487 1.487 0 0 1 1.454 1.514v1.519h3.634A1.487 1.487 0 0 1 8 4.552a1.487 1.487 0 0 1-1.452 1.519z"/></symbol><symbol viewBox="0 0 16 16" id="svg-user" xmlns="http://www.w3.org/2000/svg"><path d="M7.268.05C6.712.05 7.2.232 6.9.278a.839.839 0 0 1-.5.137C5.5.6 5.312 1.827 5.269 2.282a7.108 7.108 0 0 0-.025 1.282.33.33 0 0 1-.348.41c-.539-.037-.631 1.75-.631 1.75a.931.931 0 0 0 .77 1 3.45 3.45 0 0 0 1.347 1.733s.048.743.063 1.265c-.081-.043-.145 1.344-2.618 1.734S.875 12.7.408 13.174s-.432 2.67-.432 2.67H15.93s-.1-2.195-.569-2.67-.976-1.33-3.453-1.718S9.6 9.716 9.586 9.635c0-.208.091-1.086.091-1.086a4.657 4.657 0 0 0 1.177-1.859 1.468 1.468 0 0 0 .924-.921s.268-1.75-.374-1.75c0 0-.735.045-.649-.364a2.652 2.652 0 0 0 .014-1.008c-.043-.455.216-1.758-.683-1.94a1.864 1.864 0 0 0-.717.017C9.07.679 8.713-.147 8.157-.147z"/></symbol><symbol viewBox="0 0 22 20.844" id="svg-user-stroke" xmlns="http://www.w3.org/2000/svg"><path d="M5.055 6.5a6.207 6.207 0 0 1 1.89-4.555A6.208 6.208 0 0 1 11.5.054a6.21 6.21 0 0 1 4.555 1.891 6.26 6.26 0 0 1 1.891 4.6 6.208 6.208 0 0 1-1.891 4.555 6.208 6.208 0 0 1-4.555 1.888 6.171 6.171 0 0 1-4.555-1.912A6.276 6.276 0 0 1 5.055 6.5zm1.934 0A4.388 4.388 0 0 0 8.32 9.722a4.461 4.461 0 0 0 6.359 0A4.39 4.39 0 0 0 16.012 6.5a4.392 4.392 0 0 0-1.332-3.223 4.461 4.461 0 0 0-6.359 0A4.39 4.39 0 0 0 6.988 6.5zm9.389 8.1q1.009.409 2.557 1.2a8.669 8.669 0 0 1 2.557 1.7 3.763 3.763 0 0 1 1.01 2.446.954.954 0 0 1-.945.945H1.445a.907.907 0 0 1-.666-.279.907.907 0 0 1-.279-.661 3.76 3.76 0 0 1 1.01-2.446 8.66 8.66 0 0 1 2.557-1.7q1.547-.795 2.557-1.2c4.376-1.773 10.876.449 9.753-.005zm3.717 4.4a14.531 14.531 0 0 0-5.715-3.094H8.621A14.527 14.527 0 0 0 2.906 19h17.188z"/></symbol><symbol viewBox="0 0 8 11" id="svg-vk" xmlns="http://www.w3.org/2000/svg"><path d="M7.437 5.84a2.659 2.659 0 0 0-1.483-.875v-.059a2.213 2.213 0 0 0 1.01-.923 2.794 2.794 0 0 0 .365-1.433 2.713 2.713 0 0 0-.265-1.226 2.024 2.024 0 0 0-.8-.849A3.014 3.014 0 0 0 5.2.088 11.235 11.235 0 0 0 3.532 0H0v10.99h4a5.963 5.963 0 0 0 1.714-.206 3.4 3.4 0 0 0 1.238-.694 2.892 2.892 0 0 0 .758-1.027 3.438 3.438 0 0 0 .282-1.439 2.679 2.679 0 0 0-.555-1.784zm-2.771-2.1a.849.849 0 0 1-.416.428 1.332 1.332 0 0 1-.533.155q-.259.015-.9.015H2.5V2.011h.173q.671 0 1.01.011a1.476 1.476 0 0 1 .587.129.79.79 0 0 1 .386.406 1.354 1.354 0 0 1 .124.543 1.64 1.64 0 0 1-.114.639zm.587 4.544a1.035 1.035 0 0 1-.5.477 1.96 1.96 0 0 1-.765.2q-.376.014-1.355.014H2.5V6.22h.461q.671 0 1.07.011a1.807 1.807 0 0 1 .627.107 1.157 1.157 0 0 1 .564.436 1.45 1.45 0 0 1 .188.8 1.568 1.568 0 0 1-.157.71z"/></symbol><symbol viewBox="0 0 21 19" id="svg-wallet" xmlns="http://www.w3.org/2000/svg"><path d="M15.518 9.8a1.63 1.63 0 0 0-1.2.473 1.827 1.827 0 0 0-.473 1.2 1.488 1.488 0 0 0 .473 1.16 1.649 1.649 0 0 0 1.2.516 1.432 1.432 0 0 0 1.16-.516 1.489 1.489 0 0 0 .473-1.16 1.631 1.631 0 0 0-.473-1.2 1.579 1.579 0 0 0-1.16-.473zm4.95-5.284A1.454 1.454 0 0 0 19 4h-1V2a1.705 1.705 0 0 0-.518-1.436A1.716 1.716 0 0 0 16 0H2A1.483 1.483 0 0 0 .6.693 1.243 1.243 0 0 0 0 2v15a1.515 1.515 0 0 0 .4 1.354 2.123 2.123 0 0 0 1.59.666L19 19a2.635 2.635 0 0 0 1.684-.539A1.933 1.933 0 0 0 21 17V6a1.586 1.586 0 0 0-.531-1.482zM2 2h14c.286 0 0-.286 0 0v2H2c-.258 0 .186-.813 0-1s0 .258 0 0a1.816 1.816 0 0 1 0-1 .474.474 0 0 1 .465-.211zm17 15H2c-.23 0 0 .23 0 0V7a1.646 1.646 0 0 1 1-1h15a1.825 1.825 0 0 1 1 0 2.149 2.149 0 0 1 0 1v10z"/></symbol><symbol viewBox="0 0 13 28" id="svg-women" xmlns="http://www.w3.org/2000/svg"><path d="M8.806 2.39A2.4 2.4 0 1 1 6.406 0a2.4 2.4 0 0 1 2.4 2.39zm4.157 11.324L10.87 6.747a.859.859 0 0 0-.1-.21A1.954 1.954 0 0 0 9 5.248H4.179a2.175 2.175 0 0 0-1.961 1.23 1.018 1.018 0 0 0-.055.143l-2.121 7.2a.956.956 0 0 0 .622 1.2.961.961 0 0 0 1.176-.677l1.75-5.931.242.044-2.691 10.217h2.947v7.981A1.261 1.261 0 0 0 5.244 28 1.261 1.261 0 0 0 6.4 26.655v-7.981h.516v7.981A1.261 1.261 0 0 0 8.072 28a1.261 1.261 0 0 0 1.156-1.345v-7.981h2.721L8.867 8.321h.282l1.8 5.993a1.056 1.056 0 0 0 2.014-.6z"/></symbol></svg>