<svg xmlns="http://www.w3.org/2000/svg" width="19" height="26" viewBox="0 0 19 26">
  <defs>
    <style>
      .st0 {
        fill: #cccccc;
        fill-rule: evenodd;
      }
    </style>
  </defs>
  <path class="st0" d="M19,8.9c0-0.1,0-0.1,0-0.2c0-1.2-0.2-2.3-0.5-3.4c-0.4-1.4-1.1-2.6-2.2-3.5c-0.8-0.6-1.8-1.1-2.8-1.3
    c-0.2-0.1-0.4-0.1-0.7-0.1c-1-0.2-1.2,0-1.5,0.1c-0.1,0-0.1,0-0.2,0c-0.2,0-0.3,0-0.5,0C10,0.3,9.2-0.2,7.5,0.3
    c-2,0.6-3.7,1.8-5,1.1c-0.5-0.3-1-0.7-1.5-1C1,0.3,1,0.3,1,0.3c-0.1,0-0.2,1.2-0.2,1.3c0,0.1,0,0.2,0,0.3c0,0.1,0,0.2,0,0.4
    c0,0,0,0.1,0,0.1C1,3.2,1.4,3.9,1.9,4.6C1.7,5,1.3,5.8,1.3,5.8C1,6.7,1,7.7,1.4,8.5c1,2.1,1,3,0.5,3.6c-0.7,0.8-1.5,0.7-1.8,1.1
    c0,0-0.3,0.3,0.2,0.7C0.6,14.1,1,14.2,1,14.6c0.1,1.3,0,2.3,0.8,3.3c1.1,1.4,3.9,1.8,5.4,1c0.6-0.3,0.2,0.9,0,1.8h6
    c0,0-1.4-1-0.7-1.7c0,0,0.1-0.1,0.1-0.1c0,0,0,0,0,0c0,0,0,0,0,0c0.8-0.6,2-0.7,2.8-1.3c0.1-0.1,0.1-0.1,0.2-0.2
    c1.8-1.4,2.9-3.7,3.2-5.9C19,10.9,19,10.4,19,9.8C19,9.5,19,9.2,19,8.9z"/>
  <polygon points="5.4,21.7 5.4,26 10.1,23.9 14.4,26 14.4,21.7 10.1,23.7     "/>
</svg>
