<svg xmlns="http://www.w3.org/2000/svg" width="22" height="26" viewBox="0 0 22 26">
  <defs>
    <style>
      .st0 {
        fill: #cccccc;
        fill-rule: evenodd;
      }
    </style>
  </defs>
  <path class="st0" d="M21.5,11.6c-1-0.9-2.2-3-1.2-4.4c1-1.4,2.8-3.1,0.6-4.4c-2.2-1.4-3.5-1.7-4.4-1.4c-0.9,0.3-2.4-1.6-4.1-1.4
    C10.7,0.2,10,1,10,1L8.5,1.8C7.6,0.9,5.7-0.6,3.9,1.2C1.6,3.7,2.1,8.3,2.8,12.8c0.7,4.4-1.6,4.5-2.7,4c0,0,2.7,2,4.3-0.2
    c1.6-2.2,2.5-6.5,1.2-9.1C4.3,4.9,6.6,3.3,7.9,3.9C8,3.9,8.1,4,8.1,4C8,4.2,7.9,4.5,7.6,4.8C7.6,4.9,7.5,5,7.4,5.2
    c-0.6,1.1-1,2.5-0.2,5.2c0,0,0,0,0,0c0.6,2.1,1.8,3,2.9,3.6c1,0.6,2.2,1.5,2.4,2.7c0,0,0,0,0,0c0,0.2,0,0.4,0,0.6
    c0,0.7-0.7,2.1-0.7,2.1h5.7c0,0-1.8-0.8-1.4-2.4c0,0,2.1,0.1,3.2-0.6c1.5-0.8,1.8-2.2,1.8-3.6C21.3,12.8,22.5,12.5,21.5,11.6z"/>
  <circle class="st0" cx="10.5" cy="22.3" r="0.7"/>
  <circle class="st0" cx="12.1" cy="23.8" r="0.8"/>
  <circle class="st0" cx="19" cy="22.3" r="0.7"/>
  <circle class="st0" cx="17.5" cy="23.8" r="0.8"/>
  <circle class="st0" cx="14.7" cy="24.6" r="1.4"/>
</svg>
