<svg xmlns="http://www.w3.org/2000/svg" width="11" height="28" viewBox="0 0 11 28">
  <defs>
    <style>
      .cls-1 {
        fill: #00529f;
        fill-rule: evenodd;
      }
    </style>
  </defs>
  <path id="Shape_44_copy_5" class="cls-1" d="M11,7.12v8.569a1.021,1.021,0,0,1-2.041,0V9.212H8.481V26.248C8.481,27.216,8.192,28,7.836,28H6.377c-0.356,0-.645-0.784-0.645-1.752V16.442H5.269v9.95C5.269,27.28,4.97,28,4.6,28H3.094c-0.368,0-.667-0.719-0.667-1.608V15.754a3.755,3.755,0,0,1,.022-0.4,1.214,1.214,0,0,1-.022-0.224V9.212H1.9v6.478A0.984,0.984,0,0,1,.949,16.7,0.984,0.984,0,0,1,0,15.689V7.12A1.039,1.039,0,0,1,.374,6.313,4.111,4.111,0,0,1,3.4,5.169h0A1.519,1.519,0,0,1,3.848,5.1H4.977c2.047-.085,4.354-0.078,5.542,1.157A1.012,1.012,0,0,1,11,7.12ZM5.43,0a2.31,2.31,0,0,0-2.278,2.34A2.309,2.309,0,0,0,5.43,4.679,2.309,2.309,0,0,0,7.708,2.339,2.31,2.31,0,0,0,5.43,0Z"/>
</svg>
