<svg xmlns="http://www.w3.org/2000/svg" width="23" height="20" viewBox="0 0 23 20">
  <defs>
    <style>
      .cls-1 {
        fill: #0064b5;
        fill-rule: evenodd;
      }
    </style>
  </defs>
  <path id="box2.svg" class="cls-1" d="M4.518,4.724A0.958,0.958,0,0,0,5.227,5H17.773a0.908,0.908,0,0,0,.666-0.279,0.961,0.961,0,0,0,.279-0.709,0.954,0.954,0,0,0-.945-0.945H5.227a0.961,0.961,0,0,0-.709.279,0.908,0.908,0,0,0-.279.666A0.958,0.958,0,0,0,4.518,4.724ZM6.193,1.69a0.861,0.861,0,0,1-.236-0.6,0.9,0.9,0,0,1,.236-0.6A0.755,0.755,0,0,1,6.773.235h9.453a0.757,0.757,0,0,1,.58.258,0.9,0.9,0,0,1,.236.6,0.864,0.864,0,0,1-.236.6,0.757,0.757,0,0,1-.58.258H6.773A0.755,0.755,0,0,1,6.193,1.69Zm16.4,3.441a0.91,0.91,0,0,0-.666-0.279,0.961,0.961,0,0,0-.709.279,0.908,0.908,0,0,0-.279.666V7.042H2.028V5.8a0.911,0.911,0,0,0-.279-0.666,0.963,0.963,0,0,0-.709-0.279,0.91,0.91,0,0,0-.666.279A0.908,0.908,0,0,0,.094,5.8v2.19a0.389,0.389,0,0,1,.043.172L3.551,19.245a0.814,0.814,0,0,0,.9.73H18.5a0.876,0.876,0,0,0,.9-0.688l3.42-11.129a0.566,0.566,0,0,1,.021-0.129A0.6,0.6,0,0,0,22.869,7.9V5.8A0.911,0.911,0,0,0,22.59,5.131ZM17.73,18.042H5.184l-2.9-9.066H20.635ZM8,13.65a0.945,0.945,0,0,1,.666-1.611h5.672a0.945,0.945,0,0,1,0,1.891H8.664A0.907,0.907,0,0,1,8,13.65Z"/>
</svg>
