<svg xmlns="http://www.w3.org/2000/svg" width="10" height="10" viewBox="0 0 10 10">
  <defs>
    <style>
      .cls-1 {
        fill: #00529f;
        fill-rule: evenodd;
      }
    </style>
  </defs>
  <path id="close.svg" class="cls-1" d="M6.791,4.992L9.848,8.05a0.509,0.509,0,0,1,0,.719L8.769,9.848a0.509,0.509,0,0,1-.719,0L4.992,6.79,1.934,9.848a0.509,0.509,0,0,1-.719,0L0.135,8.769a0.509,0.509,0,0,1,0-.719L3.193,4.992,0.135,1.934a0.509,0.509,0,0,1,0-.72L1.215,0.135a0.509,0.509,0,0,1,.719,0L4.992,3.193,8.05,0.135a0.509,0.509,0,0,1,.72,0L9.848,1.214a0.509,0.509,0,0,1,0,.72Z"/>
</svg>
