<svg xmlns="http://www.w3.org/2000/svg" width="14" height="14" viewBox="0 0 14 14">
  <defs>
    <style>
      .cls-1 {
        fill-rule: evenodd;
      }
    </style>
  </defs>
  <path id="error_copy" class="cls-1" d="M9.714,6.989l4.275,4.281a0.713,0.713,0,0,1,0,1.007L12.48,13.788a0.71,0.71,0,0,1-1.006,0L7.2,9.507,2.924,13.788a0.711,0.711,0,0,1-1.006,0L0.409,12.278a0.713,0.713,0,0,1,0-1.007L4.684,6.989,0.409,2.708a0.713,0.713,0,0,1,0-1.007L1.918,0.19a0.711,0.711,0,0,1,1.006,0L7.2,4.471,11.474,0.19a0.71,0.71,0,0,1,1.006,0L13.989,1.7a0.713,0.713,0,0,1,0,1.007Z"/>
</svg>
