<svg xmlns="http://www.w3.org/2000/svg" width="6" height="12" viewBox="0 0 6 12">
  <defs>
    <style>
      .cls-1 {
        fill: #fff;
        fill-rule: evenodd;
      }
    </style>
  </defs>
  <path id="facebook.svg" class="cls-1" d="M-0.009,5.647H1.11v6.348H3.5V5.647H5L5.41,3.736H3.5V3.05a1.4,1.4,0,0,1,.232-0.941,1.157,1.157,0,0,1,.818-0.261,1.926,1.926,0,0,1,1.018.416l0.436-1.8a6.289,6.289,0,0,0-1.92-.46A4.03,4.03,0,0,0,2.3.362,2.209,2.209,0,0,0,1.36,1.4a3.863,3.863,0,0,0-.25,1.607v0.73h-1.12V5.647Z"/>
</svg>
