<svg xmlns="http://www.w3.org/2000/svg" width="19" height="19" viewBox="0 0 19 19">
  <defs>
    <style>
      .cls-1 {
        fill: #fff;
        fill-rule: evenodd;
      }
    </style>
  </defs>
  <path id="floppy.svg" class="cls-1" d="M8.312,13.26a0.99,0.99,0,1,0,.99-0.99A0.99,0.99,0,0,0,8.312,13.26ZM1.583,0A1.583,1.583,0,0,0,0,1.583V17.417A1.583,1.583,0,0,0,1.583,19H17.417A1.583,1.583,0,0,0,19,17.417V3.927a1.9,1.9,0,0,0-.546-1.342l-2.011-2A1.969,1.969,0,0,0,15.042,0H1.583ZM2.85,1.979H3.958V5.067a0.868,0.868,0,0,0,.871.871H5.858a0.868,0.868,0,0,0,.871-0.871V1.979h7.442a0.868,0.868,0,0,1,.871.871v3.8a0.868,0.868,0,0,1-.871.871H2.85A0.868,0.868,0,0,1,1.979,6.65V2.85A0.868,0.868,0,0,1,2.85,1.979ZM6.729,13.26A2.573,2.573,0,1,1,9.3,15.833,2.573,2.573,0,0,1,6.729,13.26Z"/>
</svg>
