<svg xmlns="http://www.w3.org/2000/svg" width="11" height="12" viewBox="0 0 11 12">
  <defs>
    <style>
      .cls-1 {
        fill: #ff2b2b;
        fill-rule: evenodd;
      }
    </style>
  </defs>
  <path id="glass.svg" class="cls-1" d="M6.132,8.326a5.12,5.12,0,0,1-1.987.635C1.805,8.961,0,6.736,0,4.281A4.131,4.131,0,0,1,4.144-.006,4.4,4.4,0,0,1,8.6,4.281,5.231,5.231,0,0,1,7.567,7.107l3.285,3.237a0.538,0.538,0,0,1,0,.735l-0.7.735a0.479,0.479,0,0,1-.7,0Zm-1.8-6.887A2.945,2.945,0,0,1,7.2,4.452,2.945,2.945,0,0,1,4.327,7.466,2.945,2.945,0,0,1,1.457,4.452,2.945,2.945,0,0,1,4.327,1.439Z"/>
</svg>
