<svg xmlns="http://www.w3.org/2000/svg" width="18" height="20" viewBox="0 0 18 20">
  <defs>
    <style>
      .cls-1 {
        fill: #fff;
        fill-rule: evenodd;
      }
    </style>
  </defs>
  <path id="phone.svg" class="cls-1" d="M9.226,18.691a4.08,4.08,0,0,0,5.94,0,4.465,4.465,0,0,0,1.157-3.9,8.134,8.134,0,0,0,1.145-.745c0.036-.029.2-0.146,0.236-0.179a0.852,0.852,0,0,0,.3-0.649,0.832,0.832,0,0,0-.272-0.624l-3.3-2.829a0.773,0.773,0,0,0-.5-0.187,0.791,0.791,0,0,0-.557.229c-0.056.058-.552,0.586-0.552,0.586a0.856,0.856,0,0,1-1.245,0L8.2,6.882a0.945,0.945,0,0,1,0-1.3l0.548-.57a0.837,0.837,0,0,0,.228-0.582,0.847,0.847,0,0,0-.22-0.574L5.924,0.3A0.785,0.785,0,0,0,4.659.337L4.611,0.4A6.736,6.736,0,0,0,3.19,3.932C3.19,7.486,10.811,15.4,14.2,15.4c0.064,0,.128,0,0.188,0a2.34,2.34,0,0,1-.632,1.831,2.142,2.142,0,0,1-3.114,0l-5.528-5.9a2.917,2.917,0,0,0-4.243,0,3.2,3.2,0,0,0,0,4.41l1.813,1.86a0.98,0.98,0,0,0,1.417,0,1.076,1.076,0,0,0,0-1.473L2.281,14.26a1.077,1.077,0,0,1,0-1.473,0.98,0.98,0,0,1,1.417,0Z"/>
</svg>
