<svg xmlns="http://www.w3.org/2000/svg" width="24" height="16" viewBox="0 0 24 16">
  <defs>
    <style>
      .cls-1 {
        fill: #fff;
        fill-rule: evenodd;
      }
    </style>
  </defs>
  <path id="postal.svg" class="cls-1" d="M0.828,0H23.173A0.814,0.814,0,0,1,24,.8V15.2a0.814,0.814,0,0,1-.828.8H0.828A0.814,0.814,0,0,1,0,15.2V0.8A0.814,0.814,0,0,1,.828,0ZM20.664,1.6a0.756,0.756,0,0,1,.828.775,0.864,0.864,0,0,1-.828.8h0A0.873,0.873,0,0,1,21.517,4a0.759,0.759,0,0,1-.8.85,0.807,0.807,0,0,1-.8-0.8H19.862a0.758,0.758,0,0,1-.8.725A0.812,0.812,0,0,1,18.155,4a0.814,0.814,0,0,1,.828-0.8V3.15a0.688,0.688,0,0,1-.776-0.725,0.726,0.726,0,0,1,.8-0.825,0.825,0.825,0,0,1,.828.8h0.077A0.728,0.728,0,0,1,20.664,1.6ZM12,1.6a0.407,0.407,0,0,1,.414.4V14a0.414,0.414,0,0,1-.828,0V2A0.407,0.407,0,0,1,12,1.6Zm2.483,5.6H21.1a0.4,0.4,0,1,1,0,.8H14.483A0.4,0.4,0,1,1,14.483,7.2Zm0,2.4H21.1a0.4,0.4,0,1,1,0,.8H14.483A0.4,0.4,0,1,1,14.483,9.6Zm0,2.4H21.1a0.4,0.4,0,1,1,0,.8H14.483A0.4,0.4,0,1,1,14.483,12Z"/>
</svg>
