<svg xmlns="http://www.w3.org/2000/svg" width="15" height="14" viewBox="0 0 15 14">
  <defs>
    <style>
      .cls-1 {
        fill: #1d73cb;
        fill-rule: evenodd;
      }
    </style>
  </defs>
  <path id="Shape_47_copy" data-name="Shape 47 copy" class="cls-1" d="M6.982,13.49a40.555,40.555,0,0,0,3.552-3.2,65.215,65.215,0,0,0,4.339-5.366,0.8,0.8,0,0,0-.262-1.057C12.685,2.51,10.517-.1,8,0.474a0.412,0.412,0,0,0-.168.671,27.647,27.647,0,0,0,5.333,3.643C11.892,6.6,10.508,8.309,9.088,10c-0.792.94-2.193,1.847-2.779,2.949A0.438,0.438,0,0,0,6.982,13.49ZM6.054,5.674c-1.884,2.717-4.283,5-6.035,7.8a0.33,0.33,0,0,0,.437.46c2.89-2.041,5.2-5.221,7.258-8.144a0.77,0.77,0,0,0-.254-1.022C5.126,3.372,3.2.8,0.591,0.012A0.519,0.519,0,0,0,.114.878,19.719,19.719,0,0,0,6.054,5.674Z"/>
</svg>
