<svg xmlns="http://www.w3.org/2000/svg" width="21" height="19" viewBox="0 0 21 19">
  <defs>
    <style>
      .cls-1 {
        fill: #0064b5;
        fill-rule: evenodd;
      }
    </style>
  </defs>
  <path id="wallet.svg" class="cls-1" d="M15.518,9.8a1.63,1.63,0,0,0-1.2.473,1.827,1.827,0,0,0-.473,1.2,1.488,1.488,0,0,0,.473,1.16,1.649,1.649,0,0,0,1.2.516,1.432,1.432,0,0,0,1.16-.516,1.489,1.489,0,0,0,.473-1.16,1.631,1.631,0,0,0-.473-1.2,1.579,1.579,0,0,0-1.16-.473h0Zm4.95-5.284A1.454,1.454,0,0,0,19,4H18V2A1.705,1.705,0,0,0,17.482.564,1.716,1.716,0,0,0,16,0H2A1.483,1.483,0,0,0,.6.693,1.243,1.243,0,0,0,0,2V17a1.515,1.515,0,0,0,.4,1.354,2.123,2.123,0,0,0,1.59.666L19,19a2.635,2.635,0,0,0,1.684-.539A1.933,1.933,0,0,0,21,17V6A1.586,1.586,0,0,0,20.469,4.518ZM2,2H16c0.286,0,0-.286,0,0V4H2C1.742,4,2.186,3.187,2,3S2,3.258,2,3A1.816,1.816,0,0,1,2,2a0.474,0.474,0,0,1,.465-0.211ZM19,17H2c-0.23,0,0,.23,0,0V7A1.646,1.646,0,0,1,3,6H18a1.825,1.825,0,0,1,1,0,2.149,2.149,0,0,1,0,1V17Z"/>
</svg>
