<svg xmlns="http://www.w3.org/2000/svg" width="30" height="26" viewBox="0 0 30 26">
  <defs>
    <style>
      .cls-1 {
        fill: #fff;
        fill-rule: evenodd;
      }
    </style>
  </defs>
  <path id="cart.svg" class="cls-1" d="M29.134,2.462H11.115a0.852,0.852,0,0,0,0,1.7H28.041L25.92,13.259H11.727L7.112,0.626A0.889,0.889,0,0,0,6.271,0H0.846a0.853,0.853,0,0,0,0,1.705H5.659l4.616,12.633,1.55,3.6a0.9,0.9,0,0,0,.841.626H25.452a0.853,0.853,0,0,0,0-1.705H13.236L12.42,14.964H26.615a0.87,0.87,0,0,0,.841-0.626q1.26-5.4,2.519-10.8A0.867,0.867,0,0,0,29.134,2.462ZM18.691,22.325a3.5,3.5,0,1,0-3.485,3.682,3.484,3.484,0,0,0,3.483-3.177A1.281,1.281,0,0,0,18.691,22.325Zm-5.25.25c-0.123-2.227,3.409-2.215,3.531,0A1.769,1.769,0,0,1,13.44,22.575Zm9.494,3.431a3.484,3.484,0,0,0,3.484-3.177,1.275,1.275,0,0,0,0-.5A3.5,3.5,0,1,0,22.934,26.006ZM24.7,22.575a1.768,1.768,0,0,1-3.531,0C21.045,20.348,24.577,20.36,24.7,22.575Z"/>
</svg>
