<svg xmlns="http://www.w3.org/2000/svg" width="16" height="11" viewBox="0 0 16 11">
  <defs>
    <style>
      .cls-1 {
        fill: #ff2b2b;
        fill-rule: evenodd;
      }
    </style>
  </defs>
  <path id="Speech_Bubbles" class="cls-1" d="M5.888,0c3.271,0,5.069,1.878,5.069,4.234s-1.8,3.91-5.069,3.91a8.258,8.258,0,0,1-1.164-.082A4.832,4.832,0,0,1,.962,9.872c1.7-.8,1.487-2.153,1.185-2.331A3.954,3.954,0,0,1-.035,4.233C-0.035,1.877,2.617,0,5.888,0Zm0.987,9.05a2.726,2.726,0,0,0,2.281.889,8.141,8.141,0,0,0,1.164-.165,3.721,3.721,0,0,0,4.012,1.032C12.636,10,12.6,9.074,12.9,8.9a3.805,3.805,0,0,0,2.046-3.308A4.166,4.166,0,0,0,11.32,1.481C13.061,4.991,11.934,9.082,6.875,9.049Z"/>
</svg>
