<svg xmlns="http://www.w3.org/2000/svg" width="16" height="16" viewBox="0 0 16 16">
  <defs>
    <style>
      .cls-1 {
        fill: #ff2b2b;
        fill-rule: evenodd;
      }
    </style>
  </defs>
  <path id="Locked" class="cls-1" d="M8.044,0.1A7.991,7.991,0,1,1,0,8.092,7.976,7.976,0,0,1,8.044.1ZM8.049,4.976A1.867,1.867,0,0,1,9.912,6.847a1.633,1.633,0,0,1-1.2,1.559,23.262,23.262,0,0,0,.534,2.637l-2.414.018a12.324,12.324,0,0,0,.615-2.632A1.643,1.643,0,0,1,6.186,6.847,1.867,1.867,0,0,1,8.049,4.976ZM2.008,7.055A1.008,1.008,0,1,1,1,8.063,1.006,1.006,0,0,1,2.008,7.055Zm12.047,0a1.008,1.008,0,1,1-1,1.008A1.006,1.006,0,0,1,14.055,7.055Z"/>
</svg>
