<svg xmlns="http://www.w3.org/2000/svg" width="13" height="12" viewBox="0 0 13 12">
  <defs>
    <style>
      .cls-1 {
        fill: #00529f;
        fill-rule: evenodd;
      }
    </style>
  </defs>
  <path id="refresh2.svg" class="cls-1" d="M11.118,6.345L9.235,4.5h1.1l-0.031-.08a4.471,4.471,0,0,0-4.16-2.775A4.428,4.428,0,0,0,1.677,6.028a4.428,4.428,0,0,0,4.471,4.384,4.476,4.476,0,0,0,4.079-2.587c0.007-.014.011-0.03,0.018-0.045l1.2,1.168c-0.008.014-.014,0.029-0.022,0.043L11.416,9a6.138,6.138,0,0,1-5.3,3A6.059,6.059,0,0,1,0,6,6.059,6.059,0,0,1,6.118,0a6.1,6.1,0,0,1,5.906,4.427c0.006,0.023.008,0.048,0.015,0.072H13Z"/>
</svg>
