<svg xmlns="http://www.w3.org/2000/svg" width="15" height="16" viewBox="0 0 15 16">
  <defs>
    <style>
      .cls-1 {
        fill: #fff;
        fill-rule: evenodd;
      }
    </style>
  </defs>
  <path id="blocks.svg" class="cls-1" d="M1.665,0H5A1.724,1.724,0,0,1,6.662,1.778V5.334A1.725,1.725,0,0,1,5,7.112H1.665A1.724,1.724,0,0,1,0,5.334V1.778A1.724,1.724,0,0,1,1.665,0ZM9.993,0h3.331a1.724,1.724,0,0,1,1.665,1.778V5.334a1.724,1.724,0,0,1-1.665,1.778H9.993A1.725,1.725,0,0,1,8.327,5.334V1.778A1.724,1.724,0,0,1,9.993,0ZM1.665,8.889H5a1.724,1.724,0,0,1,1.665,1.777v3.556A1.724,1.724,0,0,1,5,16H1.665A1.724,1.724,0,0,1,0,14.222V10.667A1.724,1.724,0,0,1,1.665,8.889Zm8.327,0h3.331a1.724,1.724,0,0,1,1.665,1.777v3.556A1.724,1.724,0,0,1,13.324,16H9.993a1.724,1.724,0,0,1-1.665-1.778V10.667A1.724,1.724,0,0,1,9.993,8.889Z"/>
</svg>
