<svg xmlns="http://www.w3.org/2000/svg" width="14.969" height="9.906" viewBox="0 0 14.969 9.906">
  <defs>
    <style>
      .cls-1 {
        fill: #00529f;
        fill-rule: evenodd;
      }
    </style>
  </defs>
  <path id="list.svg" class="cls-1" d="M0.393-.036H14.464a0.5,0.5,0,0,1,0,1H0.393A0.5,0.5,0,0,1,.393-0.036Zm0,2.929H14.464a0.5,0.5,0,1,1,0,1H0.393A0.5,0.5,0,0,1,.393,2.893Zm0,3.071H14.464a0.5,0.5,0,0,1,0,1H0.393A0.5,0.5,0,0,1,.393,5.964Zm0,2.929H14.464a0.5,0.5,0,0,1,0,1H0.393A0.5,0.5,0,0,1,.393,8.893Z"/>
</svg>
