<svg xmlns="http://www.w3.org/2000/svg" width="13" height="10" viewBox="0 0 13 10">
  <defs>
    <style>
      .cls-1 {
        fill: #bcbcbc;
        fill-rule: evenodd;
      }
    </style>
  </defs>
  <path id="mail.svg" class="cls-1" d="M0,8.857A1.114,1.114,0,0,0,1.084,10H11.917A1.114,1.114,0,0,0,13,8.857V1.143A1.114,1.114,0,0,0,11.917,0H1.084A1.114,1.114,0,0,0,0,1.143V8.857ZM3.987,5.009L1.508,2.377a0.578,0.578,0,0,1,0-.785,0.507,0.507,0,0,1,.745,0L6.208,5.769a0.4,0.4,0,0,0,.58,0l3.959-4.177a0.507,0.507,0,0,1,.745,0,0.577,0.577,0,0,1,0,.785L9.011,5.009l2.481,2.614a0.577,0.577,0,0,1,0,.786,0.507,0.507,0,0,1-.745,0L8.269,5.8s-0.775.831-.915,0.979a1.19,1.19,0,0,1-.853.366,1.177,1.177,0,0,1-.859-0.375C5.5,6.62,4.729,5.8,4.729,5.8L2.253,8.409a0.507,0.507,0,0,1-.745,0,0.578,0.578,0,0,1,0-.786Z"/>
</svg>
