<svg xmlns="http://www.w3.org/2000/svg" width="38" height="39" viewBox="0 0 38 39">
  <defs>
    <style>
      .cls-1 {
        fill: #0064b5;
        fill-rule: evenodd;
      }
    </style>
  </defs>
  <path id="payment-clock.svg" class="cls-1" d="M36.666,20.149a17.293,17.293,0,0,1-4.219,11.484l0.078,0.078L35.1,35.539a1.527,1.527,0,0,1-.547,2.344,1.273,1.273,0,0,1-.937.313,1.534,1.534,0,0,1-1.406-.781l-2.344-3.437a16.364,16.364,0,0,1-10.625,3.672A17,17,0,0,1,8.619,34.055L6.353,37.414a1.534,1.534,0,0,1-1.406.781,1.451,1.451,0,0,1-.937-0.312,1.519,1.519,0,0,1-.742-1.055,1.78,1.78,0,0,1,.273-1.289l2.5-3.828,0.078-.078A16.557,16.557,0,0,1,1.744,20.149a18.22,18.22,0,0,1,1.641-7.5A6.3,6.3,0,0,1,.963,7.8,7.047,7.047,0,0,1,3.7,2.492l0.078-.078A6.772,6.772,0,0,1,9.088.852a6.872,6.872,0,0,1,4.141,2.734,18.962,18.962,0,0,1,6.016-1.016A16.872,16.872,0,0,1,25.26,3.664,7.057,7.057,0,0,1,29.479.93a6.967,6.967,0,0,1,5.312,1.562V2.571A6.673,6.673,0,0,1,37.525,7.8,6.3,6.3,0,0,1,35.1,12.649a17.656,17.656,0,0,1,1.563,7.5h0Zm-8.2-14.922A18.256,18.256,0,0,1,33.229,9.6a2.558,2.558,0,0,0,.781-1.875,3.425,3.425,0,0,0-1.484-2.5A2.921,2.921,0,0,0,30.1,4.367a3.344,3.344,0,0,0-1.641.859h0ZM5.26,9.6a18.236,18.236,0,0,1,4.766-4.375,3.344,3.344,0,0,0-1.641-.859,2.919,2.919,0,0,0-2.422.859,3.421,3.421,0,0,0-1.484,2.5A3.758,3.758,0,0,0,5.26,9.6h0ZM33.229,20.071a13.6,13.6,0,0,0-4.1-9.922,13.409,13.409,0,0,0-9.883-4.141,13.347,13.347,0,0,0-9.883,4.18,13.731,13.731,0,0,0-4.1,9.961,13.6,13.6,0,0,0,4.1,9.922,13.4,13.4,0,0,0,9.883,4.141,13.344,13.344,0,0,0,9.883-4.18A13.727,13.727,0,0,0,33.229,20.071Zm-12.266-.7V10.774a1.75,1.75,0,0,0-.508-1.289,1.7,1.7,0,0,0-2.422,0,1.746,1.746,0,0,0-.508,1.289v9.375a1.992,1.992,0,0,0,.469,1.172L23.15,26.4a1.479,1.479,0,0,0,1.172.547,1.72,1.72,0,0,0,1.25-.547,1.486,1.486,0,0,0,0-2.422Z"/>
</svg>
