<svg xmlns="http://www.w3.org/2000/svg" width="13" height="13" viewBox="0 0 13 13">
  <defs>
    <style>
      .cls-1 {
        fill: #c1c1c1;
        fill-rule: evenodd;
      }
    </style>
  </defs>
  <path id="star.svg" class="cls-1" d="M6.5,0A0.527,0.527,0,0,0,6,.4L4.718,4.522H0.52A0.549,0.549,0,0,0,0,5.09a0.56,0.56,0,0,0,.225.452c0.084,0.06,3.391,2.58,3.391,2.58s-1.27,4.07-1.295,4.135a0.639,0.639,0,0,0-.032.192A0.538,0.538,0,0,0,2.814,13a0.514,0.514,0,0,0,.3-0.1L6.5,10.329S9.81,12.845,9.886,12.9a0.513,0.513,0,0,0,.3.1,0.54,0.54,0,0,0,.526-0.551,0.631,0.631,0,0,0-.033-0.192c-0.024-.065-1.295-4.135-1.295-4.135s3.307-2.521,3.391-2.58A0.562,0.562,0,0,0,13,5.087a0.544,0.544,0,0,0-.515-0.565h-4.2L7,0.4A0.527,0.527,0,0,0,6.5,0Z"/>
</svg>
