<svg xmlns="http://www.w3.org/2000/svg" width="16" height="16" viewBox="0 0 16 16">
  <defs>
    <style>
      .cls-1 {
        fill: #ff2b2b;
        fill-rule: evenodd;
      }
    </style>
  </defs>
  <path id="User" class="cls-1" d="M7.268,0.05C6.712,0.05,7.2.232,6.9,0.278a0.839,0.839,0,0,1-.5.137C5.5,0.6,5.312,1.827,5.269,2.282a7.108,7.108,0,0,0-.025,1.282,0.33,0.33,0,0,1-.348.41c-0.539-.037-0.631,1.75-0.631,1.75a0.931,0.931,0,0,0,.77,1A3.45,3.45,0,0,0,6.382,8.457S6.43,9.2,6.445,9.722C6.364,9.679,6.3,11.066,3.827,11.456S0.875,12.7.408,13.174s-0.432,2.67-.432,2.67H15.93s-0.1-2.195-.569-2.67-0.976-1.33-3.453-1.718S9.6,9.716,9.586,9.635c0-.208.091-1.086,0.091-1.086A4.657,4.657,0,0,0,10.854,6.69a1.468,1.468,0,0,0,.924-0.921s0.268-1.75-.374-1.75c0,0-.735.045-0.649-0.364a2.652,2.652,0,0,0,.014-1.008c-0.043-.455.216-1.758-0.683-1.94a1.864,1.864,0,0,0-.717.017C9.07,0.679,8.713-.147,8.157-0.147Z"/>
</svg>
