<svg xmlns="http://www.w3.org/2000/svg" width="16" height="18" viewBox="0 0 16 18">
  <defs>
    <style>
      .cls-1 {
        fill: #cccccc;
        fill-rule: evenodd;
      }
    </style>
  </defs>
  <path id="men.svg" class="cls-1" d="M7.02,13.977a1.345,1.345,0,0,0,1.509,1.016,1.345,1.345,0,0,0,1.509-1.016A3.357,3.357,0,0,1,7.02,13.977ZM7,11a0.976,0.976,0,0,0-.824.456,0.981,0.981,0,1,0,1.772.286A0.981,0.981,0,0,0,7,11Zm4,0a1,1,0,0,0-.964.705,0.975,0.975,0,0,0-.042.284,1.006,1.006,0,0,0,2.012,0,0.971,0.971,0,0,0-.2-0.586A1.009,1.009,0,0,0,11,11Zm1.475-9.128a6.527,6.527,0,0,0-1.212-.72,5.788,5.788,0,0,1,.565-0.32A0.291,0.291,0,0,0,11.985.545,0.285,0.285,0,0,0,11.772.3C6.909-.888,4.284,1.89,4.284,1.89h0A4.268,4.268,0,0,0,3.129,3.639a1.009,1.009,0,0,0-1-.269,0.116,0.116,0,0,0-.067.069,0.122,0.122,0,0,0,.006.1l0.32,0.613a1.3,1.3,0,0,0-1.28.324A0.12,0.12,0,0,0,1.07,4.6a0.114,0.114,0,0,0,.1.081,1.64,1.64,0,0,1,.884.315,2.319,2.319,0,0,0-.869.527c-1,.828-1.789,2.572-0.552,4.8a0.127,0.127,0,0,0,.135.065,0.131,0.131,0,0,0,.1-0.111,4.664,4.664,0,0,1,.093-0.46,4.709,4.709,0,0,0,.82.933,3.323,3.323,0,0,0,.087,3,2.4,2.4,0,0,0,1.05,1.019A6.39,6.39,0,0,0,5.2,17.463,2.65,2.65,0,0,0,6.8,18h3.332a2.762,2.762,0,0,0,1.636-.53c1.353-.985,1.928-1.379,2.406-2.808a2.862,2.862,0,0,0,1.189-2.49,2.817,2.817,0,0,0-.747-2.036,7.311,7.311,0,0,0,.551-2.04c0.133,0.11.255,0.222,0.363,0.328a0.271,0.271,0,0,0,.319.046A0.291,0.291,0,0,0,16,8.173,8.77,8.77,0,0,0,12.475,1.875Zm0.554,11.652h0c-0.324,1.418-.789,1.781-2.148,2.77a1.261,1.261,0,0,1-.743.241H6.8a1.121,1.121,0,0,1-.678-0.228,5.889,5.889,0,0,1-2.163-2.788c-0.027,0-.054,0-0.08,0-1.235,0-1.282-2.415-.384-2.415a0.556,0.556,0,0,1,.285-0.015v-1.3a4.732,4.732,0,0,0,4.384-.952,3.789,3.789,0,0,1-.7,1.516,0.133,0.133,0,0,0-.011.139,0.124,0.124,0,0,0,.118.068A2.954,2.954,0,0,0,10.3,8.25a5.513,5.513,0,0,0,2.9,1.546v1.322a0.47,0.47,0,0,1,.17-0.035C14.17,11.084,14.225,13.527,13.029,13.527Z"/>
</svg>
