<svg xmlns="http://www.w3.org/2000/svg" width="18" height="19" viewBox="0 0 18 19">
  <defs>
    <style>
      .cls-1 {
        fill: #cccccc;
        fill-rule: evenodd;
      }
    </style>
  </defs>
  <path id="women.svg" class="cls-1" d="M13.482,4.078a8.851,8.851,0,0,0-4.341-1.65L9.122,2.4,7.33,0.243A0.715,0.715,0,0,0,6.731,0a0.841,0.841,0,0,0-.607.32L4.74,2.1l0,0a0.435,0.435,0,0,0-.589-0.066l-1.187.89a0.386,0.386,0,0,0-.069.56l0,0-2.147.864a0.8,0.8,0,0,0-.468.487,0.636,0.636,0,0,0,.11.611l1.59,1.917C1.534,9.26,1.572,11.816.047,15.643A0.4,0.4,0,0,0,.04,16c0.518,0.852,4.062,2.715,5.5,1.767l0.137-.09a0.211,0.211,0,0,1,.208-0.016c3.446,1.714,2.731,1.717,6.172,0a0.22,0.22,0,0,1,.217.012l0.137,0.09c1.429,0.942,4.98-.912,5.5-1.766a0.4,0.4,0,0,0-.007-0.36C15.277,9.053,17.284,6.229,13.482,4.078ZM6.27,1.686a0.3,0.3,0,0,1,.217-0.114,0.255,0.255,0,0,1,.215.087L7.343,2.432a0.228,0.228,0,0,1,.039.219c0,0.006-.005.011-0.008,0.016a0.288,0.288,0,0,1-.16.158l-0.976.393L6.167,3.131,5.641,2.5ZM4.255,3.364L4.274,3.35a0.434,0.434,0,0,1,.589.066L5.1,3.7,5.217,3.842a0.386,0.386,0,0,1-.069.56l-0.019.014A0.434,0.434,0,0,1,4.539,4.35L4.363,4.138,4.186,3.924A0.386,0.386,0,0,1,4.255,3.364ZM2.007,5.27a0.228,0.228,0,0,1-.039-0.219,0.289,0.289,0,0,1,.168-0.174l0.976-.393L3.4,4.828,3.708,5.2l-0.629.811a0.3,0.3,0,0,1-.217.115,0.255,0.255,0,0,1-.214-0.087L2.525,5.895Zm9.779,10.675c-3.593,1.709-2.01,1.719-5.623,0A2.933,2.933,0,0,1,4.451,13.3L4.466,9.411a0.075,0.075,0,0,1,.109-0.064,5.55,5.55,0,0,0,2.893.718,0.378,0.378,0,0,0,.337-0.244L8.12,8.968a0.034,0.034,0,0,1,.064,0l0.309,1.633a0.27,0.27,0,0,0,.292.214,11.263,11.263,0,0,0,4.581-1.154,0.077,0.077,0,0,1,.116.06L13.5,13.3A2.933,2.933,0,0,1,11.786,15.945ZM8.016,14a0.982,0.982,0,1,0,1.963,0A1.563,1.563,0,0,1,8.016,14ZM7,11.022a1.022,1.022,0,0,0-.856.457,0.972,0.972,0,0,0-.161.536,1.017,1.017,0,0,0,2.034,0,0.967,0.967,0,0,0-.033-0.249A1.013,1.013,0,0,0,7,11.022Zm4.012,0a0.995,0.995,0,1,0,.8.4A0.992,0.992,0,0,0,11.007,11.023Z"/>
</svg>
